%TF.GenerationSoftware,KiCad,Pcbnew,9.0.7*%
%TF.CreationDate,2026-02-01T18:49:20+05:30*%
%TF.ProjectId,stm32_Phils_lab,73746d33-325f-4506-9869-6c735f6c6162,rev?*%
%TF.SameCoordinates,Original*%
%TF.FileFunction,Copper,L1,Top*%
%TF.FilePolarity,Positive*%
%FSLAX46Y46*%
G04 Gerber Fmt 4.6, Leading zero omitted, Abs format (unit mm)*
G04 Created by KiCad (PCBNEW 9.0.7) date 2026-02-01 18:49:20*
%MOMM*%
%LPD*%
G01*
G04 APERTURE LIST*
G04 Aperture macros list*
%AMRoundRect*
0 Rectangle with rounded corners*
0 $1 Rounding radius*
0 $2 $3 $4 $5 $6 $7 $8 $9 X,Y pos of 4 corners*
0 Add a 4 corners polygon primitive as box body*
4,1,4,$2,$3,$4,$5,$6,$7,$8,$9,$2,$3,0*
0 Add four circle primitives for the rounded corners*
1,1,$1+$1,$2,$3*
1,1,$1+$1,$4,$5*
1,1,$1+$1,$6,$7*
1,1,$1+$1,$8,$9*
0 Add four rect primitives between the rounded corners*
20,1,$1+$1,$2,$3,$4,$5,0*
20,1,$1+$1,$4,$5,$6,$7,0*
20,1,$1+$1,$6,$7,$8,$9,0*
20,1,$1+$1,$8,$9,$2,$3,0*%
G04 Aperture macros list end*
%TA.AperFunction,SMDPad,CuDef*%
%ADD10R,1.500000X0.700000*%
%TD*%
%TA.AperFunction,SMDPad,CuDef*%
%ADD11R,0.800000X1.000000*%
%TD*%
%TA.AperFunction,SMDPad,CuDef*%
%ADD12RoundRect,0.250000X-0.350000X0.450000X-0.350000X-0.450000X0.350000X-0.450000X0.350000X0.450000X0*%
%TD*%
%TA.AperFunction,SMDPad,CuDef*%
%ADD13RoundRect,0.075000X-0.662500X-0.075000X0.662500X-0.075000X0.662500X0.075000X-0.662500X0.075000X0*%
%TD*%
%TA.AperFunction,SMDPad,CuDef*%
%ADD14RoundRect,0.075000X-0.075000X-0.662500X0.075000X-0.662500X0.075000X0.662500X-0.075000X0.662500X0*%
%TD*%
%TA.AperFunction,SMDPad,CuDef*%
%ADD15RoundRect,0.375000X-0.375000X0.625000X-0.375000X-0.625000X0.375000X-0.625000X0.375000X0.625000X0*%
%TD*%
%TA.AperFunction,SMDPad,CuDef*%
%ADD16RoundRect,0.500000X-1.400000X0.500000X-1.400000X-0.500000X1.400000X-0.500000X1.400000X0.500000X0*%
%TD*%
%TA.AperFunction,SMDPad,CuDef*%
%ADD17RoundRect,0.135000X-0.135000X-0.185000X0.135000X-0.185000X0.135000X0.185000X-0.135000X0.185000X0*%
%TD*%
%TA.AperFunction,SMDPad,CuDef*%
%ADD18RoundRect,0.135000X0.135000X0.185000X-0.135000X0.185000X-0.135000X-0.185000X0.135000X-0.185000X0*%
%TD*%
%TA.AperFunction,SMDPad,CuDef*%
%ADD19RoundRect,0.135000X0.185000X-0.135000X0.185000X0.135000X-0.185000X0.135000X-0.185000X-0.135000X0*%
%TD*%
%TA.AperFunction,ComponentPad*%
%ADD20R,1.700000X1.700000*%
%TD*%
%TA.AperFunction,ComponentPad*%
%ADD21C,1.700000*%
%TD*%
%TA.AperFunction,SMDPad,CuDef*%
%ADD22R,1.300000X0.450000*%
%TD*%
%TA.AperFunction,HeatsinkPad*%
%ADD23O,1.800000X1.150000*%
%TD*%
%TA.AperFunction,HeatsinkPad*%
%ADD24O,2.000000X1.450000*%
%TD*%
%TA.AperFunction,SMDPad,CuDef*%
%ADD25RoundRect,0.218750X-0.256250X0.218750X-0.256250X-0.218750X0.256250X-0.218750X0.256250X0.218750X0*%
%TD*%
%TA.AperFunction,SMDPad,CuDef*%
%ADD26RoundRect,0.140000X0.170000X-0.140000X0.170000X0.140000X-0.170000X0.140000X-0.170000X-0.140000X0*%
%TD*%
%TA.AperFunction,SMDPad,CuDef*%
%ADD27RoundRect,0.140000X-0.140000X-0.170000X0.140000X-0.170000X0.140000X0.170000X-0.140000X0.170000X0*%
%TD*%
%TA.AperFunction,SMDPad,CuDef*%
%ADD28RoundRect,0.140000X0.140000X0.170000X-0.140000X0.170000X-0.140000X-0.170000X0.140000X-0.170000X0*%
%TD*%
%TA.AperFunction,SMDPad,CuDef*%
%ADD29RoundRect,0.140000X-0.170000X0.140000X-0.170000X-0.140000X0.170000X-0.140000X0.170000X0.140000X0*%
%TD*%
%TA.AperFunction,SMDPad,CuDef*%
%ADD30RoundRect,0.225000X-0.225000X-0.250000X0.225000X-0.250000X0.225000X0.250000X-0.225000X0.250000X0*%
%TD*%
%TA.AperFunction,SMDPad,CuDef*%
%ADD31RoundRect,0.250000X0.475000X-0.250000X0.475000X0.250000X-0.475000X0.250000X-0.475000X-0.250000X0*%
%TD*%
%TA.AperFunction,SMDPad,CuDef*%
%ADD32RoundRect,0.250000X-0.250000X-0.475000X0.250000X-0.475000X0.250000X0.475000X-0.250000X0.475000X0*%
%TD*%
%TA.AperFunction,ViaPad*%
%ADD33C,0.600000*%
%TD*%
%TA.AperFunction,Conductor*%
%ADD34C,0.300000*%
%TD*%
%TA.AperFunction,Conductor*%
%ADD35C,0.500000*%
%TD*%
%TA.AperFunction,Conductor*%
%ADD36C,0.200000*%
%TD*%
G04 APERTURE END LIST*
D10*
%TO.P,SW1,3,C*%
%TO.N,+3.3V*%
X81750000Y-85000000D03*
%TO.P,SW1,2,B*%
%TO.N,/SW_BOOT0*%
X81750000Y-83500000D03*
%TO.P,SW1,1,A*%
%TO.N,GND*%
X81750000Y-80500000D03*
D11*
%TO.P,SW1,*%
%TO.N,*%
X78890000Y-86400000D03*
X81100000Y-86400000D03*
X78890000Y-79100000D03*
X81100000Y-79100000D03*
%TD*%
D12*
%TO.P,Y1,1,1*%
%TO.N,/HSE_IN*%
X85650000Y-85670000D03*
%TO.P,Y1,2,G*%
%TO.N,GND*%
X85650000Y-87870000D03*
%TO.P,Y1,3,3*%
%TO.N,/HSE_OUT*%
X87350000Y-87870000D03*
%TO.P,Y1,4,G*%
%TO.N,GND*%
X87350000Y-85670000D03*
%TD*%
D13*
%TO.P,U2,1,VBAT*%
%TO.N,+3.3V*%
X92675000Y-85000000D03*
%TO.P,U2,2,PC13*%
%TO.N,unconnected-(U2-PC13-Pad2)*%
X92675000Y-85500000D03*
%TO.P,U2,3,PC14*%
%TO.N,unconnected-(U2-PC14-Pad3)*%
X92675000Y-86000000D03*
%TO.P,U2,4,PC15*%
%TO.N,unconnected-(U2-PC15-Pad4)*%
X92675000Y-86500000D03*
%TO.P,U2,5,PD0*%
%TO.N,/HSE_IN*%
X92675000Y-87000000D03*
%TO.P,U2,6,PD1*%
%TO.N,/HSE_OUT*%
X92675000Y-87500000D03*
%TO.P,U2,7,NRST*%
%TO.N,/NRST*%
X92675000Y-88000000D03*
%TO.P,U2,8,VSSA*%
%TO.N,GND*%
X92675000Y-88500000D03*
%TO.P,U2,9,VDDA*%
%TO.N,+3.3VA*%
X92675000Y-89000000D03*
%TO.P,U2,10,PA0*%
%TO.N,unconnected-(U2-PA0-Pad10)*%
X92675000Y-89500000D03*
%TO.P,U2,11,PA1*%
%TO.N,unconnected-(U2-PA1-Pad11)*%
X92675000Y-90000000D03*
%TO.P,U2,12,PA2*%
%TO.N,unconnected-(U2-PA2-Pad12)*%
X92675000Y-90500000D03*
D14*
%TO.P,U2,13,PA3*%
%TO.N,unconnected-(U2-PA3-Pad13)*%
X94087500Y-91912500D03*
%TO.P,U2,14,PA4*%
%TO.N,unconnected-(U2-PA4-Pad14)*%
X94587500Y-91912500D03*
%TO.P,U2,15,PA5*%
%TO.N,unconnected-(U2-PA5-Pad15)*%
X95087500Y-91912500D03*
%TO.P,U2,16,PA6*%
%TO.N,unconnected-(U2-PA6-Pad16)*%
X95587500Y-91912500D03*
%TO.P,U2,17,PA7*%
%TO.N,unconnected-(U2-PA7-Pad17)*%
X96087500Y-91912500D03*
%TO.P,U2,18,PB0*%
%TO.N,unconnected-(U2-PB0-Pad18)*%
X96587500Y-91912500D03*
%TO.P,U2,19,PB1*%
%TO.N,unconnected-(U2-PB1-Pad19)*%
X97087500Y-91912500D03*
%TO.P,U2,20,PB2*%
%TO.N,unconnected-(U2-PB2-Pad20)*%
X97587500Y-91912500D03*
%TO.P,U2,21,PB10*%
%TO.N,/I2C2_SCL*%
X98087500Y-91912500D03*
%TO.P,U2,22,PB11*%
%TO.N,/I2C2_SDA*%
X98587500Y-91912500D03*
%TO.P,U2,23,VSS*%
%TO.N,GND*%
X99087500Y-91912500D03*
%TO.P,U2,24,VDD*%
%TO.N,+3.3V*%
X99587500Y-91912500D03*
D13*
%TO.P,U2,25,PB12*%
%TO.N,unconnected-(U2-PB12-Pad25)*%
X101000000Y-90500000D03*
%TO.P,U2,26,PB13*%
%TO.N,unconnected-(U2-PB13-Pad26)*%
X101000000Y-90000000D03*
%TO.P,U2,27,PB14*%
%TO.N,unconnected-(U2-PB14-Pad27)*%
X101000000Y-89500000D03*
%TO.P,U2,28,PB15*%
%TO.N,unconnected-(U2-PB15-Pad28)*%
X101000000Y-89000000D03*
%TO.P,U2,29,PA8*%
%TO.N,unconnected-(U2-PA8-Pad29)*%
X101000000Y-88500000D03*
%TO.P,U2,30,PA9*%
%TO.N,unconnected-(U2-PA9-Pad30)*%
X101000000Y-88000000D03*
%TO.P,U2,31,PA10*%
%TO.N,unconnected-(U2-PA10-Pad31)*%
X101000000Y-87500000D03*
%TO.P,U2,32,PA11*%
%TO.N,/USB_D-*%
X101000000Y-87000000D03*
%TO.P,U2,33,PA12*%
%TO.N,/USB_D+*%
X101000000Y-86500000D03*
%TO.P,U2,34,PA13*%
%TO.N,/SWDIO*%
X101000000Y-86000000D03*
%TO.P,U2,35,VSS*%
%TO.N,GND*%
X101000000Y-85500000D03*
%TO.P,U2,36,VDD*%
%TO.N,+3.3V*%
X101000000Y-85000000D03*
D14*
%TO.P,U2,37,PA14*%
%TO.N,/SWCLK*%
X99587500Y-83587500D03*
%TO.P,U2,38,PA15*%
%TO.N,unconnected-(U2-PA15-Pad38)*%
X99087500Y-83587500D03*
%TO.P,U2,39,PB3*%
%TO.N,unconnected-(U2-PB3-Pad39)*%
X98587500Y-83587500D03*
%TO.P,U2,40,PB4*%
%TO.N,unconnected-(U2-PB4-Pad40)*%
X98087500Y-83587500D03*
%TO.P,U2,41,PB5*%
%TO.N,unconnected-(U2-PB5-Pad41)*%
X97587500Y-83587500D03*
%TO.P,U2,42,PB6*%
%TO.N,/USART1_TX*%
X97087500Y-83587500D03*
%TO.P,U2,43,PB7*%
%TO.N,/USART1_RX*%
X96587500Y-83587500D03*
%TO.P,U2,44,BOOT0*%
%TO.N,/BOOT0*%
X96087500Y-83587500D03*
%TO.P,U2,45,PB8*%
%TO.N,unconnected-(U2-PB8-Pad45)*%
X95587500Y-83587500D03*
%TO.P,U2,46,PB9*%
%TO.N,unconnected-(U2-PB9-Pad46)*%
X95087500Y-83587500D03*
%TO.P,U2,47,VSS*%
%TO.N,GND*%
X94587500Y-83587500D03*
%TO.P,U2,48,VDD*%
%TO.N,+3.3V*%
X94087500Y-83587500D03*
%TD*%
D15*
%TO.P,U1,1,GND*%
%TO.N,GND*%
X110050000Y-93100000D03*
%TO.P,U1,2,VO*%
%TO.N,+3.3V*%
X107750000Y-93100000D03*
D16*
X107750000Y-99400000D03*
D15*
%TO.P,U1,3,VI*%
%TO.N,VBUS*%
X105450000Y-93100000D03*
%TD*%
D17*
%TO.P,R5,1*%
%TO.N,+3.3V*%
X95480000Y-98000000D03*
%TO.P,R5,2*%
%TO.N,/I2C2_SDA*%
X96500000Y-98000000D03*
%TD*%
D18*
%TO.P,R4,1*%
%TO.N,+3.3V*%
X94250000Y-98000000D03*
%TO.P,R4,2*%
%TO.N,/I2C2_SCL*%
X93230000Y-98000000D03*
%TD*%
D19*
%TO.P,R3,1*%
%TO.N,/USB_D+*%
X106225000Y-86360000D03*
%TO.P,R3,2*%
%TO.N,+3.3V*%
X106225000Y-85340000D03*
%TD*%
%TO.P,R2,1*%
%TO.N,/SW_BOOT0*%
X84000000Y-83510000D03*
%TO.P,R2,2*%
%TO.N,/BOOT0*%
X84000000Y-82490000D03*
%TD*%
D17*
%TO.P,R1,1*%
%TO.N,/PWR_LED_K*%
X114730000Y-94250000D03*
%TO.P,R1,2*%
%TO.N,GND*%
X115750000Y-94250000D03*
%TD*%
D20*
%TO.P,J4,1,Pin_1*%
%TO.N,+3.3V*%
X91440000Y-102250000D03*
D21*
%TO.P,J4,2,Pin_2*%
%TO.N,/I2C2_SCL*%
X93980000Y-102250000D03*
%TO.P,J4,3,Pin_3*%
%TO.N,/I2C2_SDA*%
X96520000Y-102250000D03*
%TO.P,J4,4,Pin_4*%
%TO.N,GND*%
X99060000Y-102250000D03*
%TD*%
D20*
%TO.P,J3,1,Pin_1*%
%TO.N,+3.3V*%
X109330000Y-75250000D03*
D21*
%TO.P,J3,2,Pin_2*%
%TO.N,/SWDIO*%
X106790000Y-75250000D03*
%TO.P,J3,3,Pin_3*%
%TO.N,/SWCLK*%
X104250000Y-75250000D03*
%TO.P,J3,4,Pin_4*%
%TO.N,GND*%
X101710000Y-75250000D03*
%TD*%
D20*
%TO.P,J2,1,Pin_1*%
%TO.N,+3.3V*%
X96250000Y-75250000D03*
D21*
%TO.P,J2,2,Pin_2*%
%TO.N,/USART1_TX*%
X93710000Y-75250000D03*
%TO.P,J2,3,Pin_3*%
%TO.N,/USART1_RX*%
X91170000Y-75250000D03*
%TO.P,J2,4,Pin_4*%
%TO.N,GND*%
X88630000Y-75250000D03*
%TD*%
D22*
%TO.P,J1,1,VBUS*%
%TO.N,VBUS*%
X111850000Y-87700000D03*
%TO.P,J1,2,D-*%
%TO.N,/USB_D-*%
X111850000Y-87050000D03*
%TO.P,J1,3,D+*%
%TO.N,/USB_D+*%
X111850000Y-86400000D03*
%TO.P,J1,4,ID*%
%TO.N,unconnected-(J1-ID-Pad4)*%
X111850000Y-85750000D03*
%TO.P,J1,5,GND*%
%TO.N,GND*%
X111850000Y-85100000D03*
D23*
%TO.P,J1,6,SSTX-*%
%TO.N,unconnected-(J1-SSTX--Pad6)_3*%
X115700000Y-90275000D03*
D24*
%TO.N,unconnected-(J1-SSTX--Pad6)_2*%
X111900000Y-90125000D03*
%TO.N,unconnected-(J1-SSTX--Pad6)_1*%
X111900000Y-82675000D03*
D23*
%TO.N,unconnected-(J1-SSTX--Pad6)*%
X115700000Y-82525000D03*
%TD*%
D25*
%TO.P,FB1,1*%
%TO.N,+3.3VA*%
X92000000Y-92175000D03*
%TO.P,FB1,2*%
%TO.N,+3.3V*%
X92000000Y-93750000D03*
%TD*%
%TO.P,D1,1,K*%
%TO.N,/PWR_LED_K*%
X115250000Y-96062500D03*
%TO.P,D1,2,A*%
%TO.N,+3.3V*%
X115250000Y-97637500D03*
%TD*%
D26*
%TO.P,C13,1*%
%TO.N,/HSE_OUT*%
X89000000Y-88230000D03*
%TO.P,C13,2*%
%TO.N,GND*%
X89000000Y-87270000D03*
%TD*%
%TO.P,C12,1*%
%TO.N,/HSE_IN*%
X89000000Y-86250000D03*
%TO.P,C12,2*%
%TO.N,GND*%
X89000000Y-85290000D03*
%TD*%
D27*
%TO.P,C11,1*%
%TO.N,/NRST*%
X93770000Y-93750000D03*
%TO.P,C11,2*%
%TO.N,GND*%
X94730000Y-93750000D03*
%TD*%
D28*
%TO.P,C10,1*%
%TO.N,+3.3V*%
X90730000Y-93500000D03*
%TO.P,C10,2*%
%TO.N,GND*%
X89770000Y-93500000D03*
%TD*%
%TO.P,C9,1*%
%TO.N,+3.3VA*%
X90730000Y-92250000D03*
%TO.P,C9,2*%
%TO.N,GND*%
X89770000Y-92250000D03*
%TD*%
D26*
%TO.P,C8,1*%
%TO.N,+3.3VA*%
X90750000Y-89230000D03*
%TO.P,C8,2*%
%TO.N,GND*%
X90750000Y-88270000D03*
%TD*%
D27*
%TO.P,C7,2*%
%TO.N,GND*%
X94880000Y-81500000D03*
%TO.P,C7,1*%
%TO.N,+3.3V*%
X93920000Y-81500000D03*
%TD*%
D29*
%TO.P,C6,1*%
%TO.N,+3.3V*%
X103000000Y-84770000D03*
%TO.P,C6,2*%
%TO.N,GND*%
X103000000Y-85730000D03*
%TD*%
D28*
%TO.P,C5,1*%
%TO.N,+3.3V*%
X100230000Y-93750000D03*
%TO.P,C5,2*%
%TO.N,GND*%
X99270000Y-93750000D03*
%TD*%
D26*
%TO.P,C4,1*%
%TO.N,+3.3V*%
X90500000Y-84980000D03*
%TO.P,C4,2*%
%TO.N,GND*%
X90500000Y-84020000D03*
%TD*%
D30*
%TO.P,C3,1*%
%TO.N,+3.3V*%
X93700000Y-80000000D03*
%TO.P,C3,2*%
%TO.N,GND*%
X95250000Y-80000000D03*
%TD*%
D31*
%TO.P,C2,1*%
%TO.N,+3.3V*%
X112500000Y-97200000D03*
%TO.P,C2,2*%
%TO.N,GND*%
X112500000Y-95300000D03*
%TD*%
D32*
%TO.P,C1,1*%
%TO.N,VBUS*%
X106800000Y-90750000D03*
%TO.P,C1,2*%
%TO.N,GND*%
X108700000Y-90750000D03*
%TD*%
D33*
%TO.N,GND*%
X94575000Y-84925000D03*
X90525000Y-83050000D03*
X85475000Y-89100000D03*
X86925000Y-84175000D03*
%TO.N,+3.3V*%
X92575000Y-99450000D03*
X93925000Y-99400000D03*
X96625000Y-96340380D03*
X98075000Y-96400000D03*
%TO.N,GND*%
X110100000Y-84900000D03*
X113850000Y-95250000D03*
X110500000Y-94650000D03*
X109700000Y-94650000D03*
X109800000Y-91000000D03*
X109800000Y-90250000D03*
X82250000Y-79750000D03*
X115750000Y-93250000D03*
X103750000Y-85750000D03*
X89750000Y-94500000D03*
X89000000Y-84500000D03*
X89750000Y-87250000D03*
X89750000Y-91250000D03*
X95500000Y-93750000D03*
X99000000Y-90750000D03*
X93915380Y-88650000D03*
%TD*%
D34*
%TO.N,GND*%
X94587500Y-84912500D02*
X94575000Y-84925000D01*
X94587500Y-83587500D02*
X94587500Y-84912500D01*
X90500000Y-83075000D02*
X90525000Y-83050000D01*
X90500000Y-84020000D02*
X90500000Y-83075000D01*
X95000000Y-81620000D02*
X94880000Y-81500000D01*
X95000000Y-82325000D02*
X95000000Y-81620000D01*
X94587500Y-83587500D02*
X94587500Y-82737500D01*
X94587500Y-82737500D02*
X95000000Y-82325000D01*
%TO.N,+3.3VA*%
X90750000Y-92230000D02*
X90730000Y-92250000D01*
X90750000Y-89230000D02*
X90750000Y-92230000D01*
D35*
X91925000Y-92250000D02*
X92000000Y-92175000D01*
X90730000Y-92250000D02*
X91925000Y-92250000D01*
%TO.N,GND*%
X85650000Y-88925000D02*
X85475000Y-89100000D01*
X85650000Y-87870000D02*
X85650000Y-88925000D01*
X87350000Y-84600000D02*
X86925000Y-84175000D01*
X87350000Y-85670000D02*
X87350000Y-84600000D01*
D34*
%TO.N,+3.3V*%
X106225000Y-85340000D02*
X106225000Y-84150000D01*
X106225000Y-84150000D02*
X111550000Y-78825000D01*
D35*
X111550000Y-78825000D02*
X113900000Y-81175000D01*
D34*
X103000000Y-84770000D02*
X105655000Y-84770000D01*
X105655000Y-84770000D02*
X106225000Y-85340000D01*
D35*
X116150000Y-98900000D02*
X114350000Y-98900000D01*
X117250000Y-97800000D02*
X116150000Y-98900000D01*
X117275000Y-97775000D02*
X117250000Y-97800000D01*
X117275000Y-93275000D02*
X117275000Y-97775000D01*
X115125000Y-92350000D02*
X116350000Y-92350000D01*
X114850000Y-92350000D02*
X115125000Y-92350000D01*
X114050000Y-91550000D02*
X114850000Y-92350000D01*
X116350000Y-92350000D02*
X117275000Y-93275000D01*
X114050000Y-81325000D02*
X114050000Y-91550000D01*
X109330000Y-76605000D02*
X111550000Y-78825000D01*
X113900000Y-81175000D02*
X114050000Y-81325000D01*
X109330000Y-75250000D02*
X109330000Y-76605000D01*
D34*
X114100000Y-99800000D02*
X114100000Y-97250000D01*
D35*
X109330000Y-73845000D02*
X109330000Y-75250000D01*
X108750000Y-73125000D02*
X109400000Y-73775000D01*
X98375000Y-73125000D02*
X108750000Y-73125000D01*
X109400000Y-73775000D02*
X109330000Y-73845000D01*
X96250000Y-75250000D02*
X98375000Y-73125000D01*
X92344000Y-84899000D02*
X92675000Y-84899000D01*
X91475000Y-84030000D02*
X92344000Y-84899000D01*
X91475000Y-80000000D02*
X91475000Y-84030000D01*
X91475000Y-80000000D02*
X93700000Y-80000000D01*
X88875000Y-80000000D02*
X91475000Y-80000000D01*
X83587500Y-85287500D02*
X83775000Y-85475000D01*
X83587500Y-85287500D02*
X88875000Y-80000000D01*
X89750000Y-102250000D02*
X91440000Y-102250000D01*
X83775000Y-85475000D02*
X83775000Y-96275000D01*
X83300000Y-85000000D02*
X83587500Y-85287500D01*
X81750000Y-85000000D02*
X83300000Y-85000000D01*
X83775000Y-96275000D02*
X89750000Y-102250000D01*
X90730000Y-93500000D02*
X91750000Y-93500000D01*
X91750000Y-93500000D02*
X92000000Y-93750000D01*
X92000000Y-93750000D02*
X92000000Y-100025000D01*
X92000000Y-100025000D02*
X91050000Y-100975000D01*
X91050000Y-101860000D02*
X91440000Y-102250000D01*
X91050000Y-100975000D02*
X91050000Y-101860000D01*
X92575000Y-99450000D02*
X92000000Y-100025000D01*
X94250000Y-99075000D02*
X94250000Y-98000000D01*
X93925000Y-99400000D02*
X94250000Y-99075000D01*
X94250000Y-98000000D02*
X95480000Y-98000000D01*
X95480000Y-97420058D02*
X96592339Y-96307719D01*
X95480000Y-98000000D02*
X95480000Y-97420058D01*
D34*
X98319240Y-96350000D02*
X98284620Y-96384620D01*
X101450000Y-96350000D02*
X98319240Y-96350000D01*
X101450000Y-96350000D02*
X101850000Y-96750000D01*
X100230000Y-95130000D02*
X101450000Y-96350000D01*
X114100000Y-97250000D02*
X114050000Y-97200000D01*
D35*
X112500000Y-97200000D02*
X114050000Y-97200000D01*
D34*
X105100000Y-102550000D02*
X111350000Y-102550000D01*
X101850000Y-99300000D02*
X105100000Y-102550000D01*
X111350000Y-102550000D02*
X114100000Y-99800000D01*
X100230000Y-93750000D02*
X100230000Y-95130000D01*
X101850000Y-96750000D02*
X101850000Y-99300000D01*
D35*
%TO.N,/PWR_LED_K*%
X114730000Y-95542500D02*
X114730000Y-94250000D01*
X115250000Y-96062500D02*
X114730000Y-95542500D01*
%TO.N,+3.3V*%
X114812500Y-97200000D02*
X115250000Y-97637500D01*
X114050000Y-97200000D02*
X114812500Y-97200000D01*
D34*
%TO.N,GND*%
X110100000Y-84900000D02*
X111650000Y-84900000D01*
X111650000Y-84900000D02*
X111850000Y-85100000D01*
D35*
X81750000Y-80250000D02*
X82250000Y-79750000D01*
X81750000Y-80500000D02*
X81750000Y-80250000D01*
X115750000Y-94250000D02*
X115750000Y-93250000D01*
D34*
X103730000Y-85730000D02*
X103750000Y-85750000D01*
X103000000Y-85730000D02*
X103730000Y-85730000D01*
X93765380Y-88500000D02*
X93915380Y-88650000D01*
X92675000Y-88500000D02*
X93765380Y-88500000D01*
%TO.N,/NRST*%
X93250000Y-93230000D02*
X93770000Y-93750000D01*
X93250000Y-91267034D02*
X93250000Y-93230000D01*
X94750000Y-89767034D02*
X93250000Y-91267034D01*
X94750000Y-88500000D02*
X94750000Y-89767034D01*
X94250000Y-88000000D02*
X94750000Y-88500000D01*
X92675000Y-88000000D02*
X94250000Y-88000000D01*
%TO.N,GND*%
X89770000Y-94480000D02*
X89750000Y-94500000D01*
X89770000Y-93500000D02*
X89770000Y-94480000D01*
X89000000Y-85290000D02*
X89000000Y-84500000D01*
X89730000Y-87270000D02*
X89750000Y-87250000D01*
X89000000Y-87270000D02*
X89730000Y-87270000D01*
X89770000Y-91270000D02*
X89750000Y-91250000D01*
X89770000Y-92250000D02*
X89770000Y-91270000D01*
X99087500Y-90837500D02*
X99000000Y-90750000D01*
X99087500Y-91912500D02*
X99087500Y-90837500D01*
D35*
X94730000Y-93750000D02*
X95500000Y-93750000D01*
D34*
%TO.N,/I2C2_SDA*%
X96500000Y-102230000D02*
X96520000Y-102250000D01*
X96500000Y-98000000D02*
X96500000Y-102230000D01*
%TO.N,/I2C2_SCL*%
X93980000Y-101730000D02*
X93980000Y-102250000D01*
X93230000Y-100980000D02*
X93980000Y-101730000D01*
X93230000Y-98000000D02*
X93230000Y-100980000D01*
X94750000Y-95750000D02*
X93230000Y-97270000D01*
X93230000Y-97270000D02*
X93230000Y-98000000D01*
X95250000Y-95750000D02*
X94750000Y-95750000D01*
X98087500Y-92912500D02*
X95250000Y-95750000D01*
X98087500Y-91912500D02*
X98087500Y-92912500D01*
%TO.N,/I2C2_SDA*%
X96500000Y-97250000D02*
X96500000Y-98000000D01*
X98587500Y-95162500D02*
X96500000Y-97250000D01*
X98587500Y-91912500D02*
X98587500Y-95162500D01*
%TO.N,GND*%
X99087500Y-93567500D02*
X99270000Y-93750000D01*
X99087500Y-91912500D02*
X99087500Y-93567500D01*
%TO.N,+3.3V*%
X100230000Y-93020000D02*
X100230000Y-93750000D01*
X100250000Y-93000000D02*
X100230000Y-93020000D01*
X99587500Y-92337500D02*
X100250000Y-93000000D01*
X99587500Y-91912500D02*
X99587500Y-92337500D01*
%TO.N,/SW_BOOT0*%
X81760000Y-83510000D02*
X81750000Y-83500000D01*
X84000000Y-83510000D02*
X81760000Y-83510000D01*
%TO.N,/BOOT0*%
X84000000Y-79500000D02*
X84000000Y-82490000D01*
X96250000Y-78750000D02*
X84750000Y-78750000D01*
X96750000Y-79250000D02*
X96250000Y-78750000D01*
X84750000Y-78750000D02*
X84000000Y-79500000D01*
X96750000Y-80750000D02*
X96750000Y-79250000D01*
X96087500Y-81412500D02*
X96750000Y-80750000D01*
X96087500Y-83587500D02*
X96087500Y-81412500D01*
%TO.N,/USART1_RX*%
X92920000Y-77000000D02*
X91170000Y-75250000D01*
X94500000Y-77000000D02*
X92920000Y-77000000D01*
X95500000Y-78000000D02*
X94500000Y-77000000D01*
X96750000Y-78000000D02*
X95500000Y-78000000D01*
X97500000Y-78750000D02*
X96750000Y-78000000D01*
X97500000Y-81000000D02*
X97500000Y-78750000D01*
X96587500Y-81912500D02*
X97500000Y-81000000D01*
X96587500Y-83587500D02*
X96587500Y-81912500D01*
%TO.N,/USART1_TX*%
X97250000Y-77250000D02*
X95710000Y-77250000D01*
X95710000Y-77250000D02*
X93710000Y-75250000D01*
X98250000Y-78250000D02*
X97250000Y-77250000D01*
X98250000Y-81250000D02*
X98250000Y-78250000D01*
X97087500Y-82412500D02*
X98250000Y-81250000D01*
X97087500Y-83587500D02*
X97087500Y-82412500D01*
%TO.N,/SWDIO*%
X99500000Y-85157966D02*
X106790000Y-77867966D01*
X106790000Y-77867966D02*
X106790000Y-75250000D01*
X99500000Y-85500000D02*
X99500000Y-85157966D01*
X100000000Y-86000000D02*
X99500000Y-85500000D01*
X101000000Y-86000000D02*
X100000000Y-86000000D01*
%TO.N,/SWCLK*%
X104250000Y-77250000D02*
X104250000Y-75250000D01*
X99587500Y-81912500D02*
X104250000Y-77250000D01*
X99587500Y-83587500D02*
X99587500Y-81912500D01*
D36*
%TO.N,/USB_D-*%
X110874999Y-87050000D02*
X111850000Y-87050000D01*
X110774999Y-86950000D02*
X110874999Y-87050000D01*
X101050000Y-86950000D02*
X110774999Y-86950000D01*
X101000000Y-87000000D02*
X101050000Y-86950000D01*
%TO.N,/USB_D+*%
X110874999Y-86400000D02*
X111850000Y-86400000D01*
X110774999Y-86500000D02*
X110874999Y-86400000D01*
X101000000Y-86500000D02*
X110774999Y-86500000D01*
D34*
%TO.N,/HSE_IN*%
X86730000Y-86750000D02*
X85650000Y-85670000D01*
X88426870Y-86250000D02*
X87926870Y-86750000D01*
X89000000Y-86250000D02*
X88426870Y-86250000D01*
X87926870Y-86750000D02*
X86730000Y-86750000D01*
X91000000Y-86250000D02*
X89000000Y-86250000D01*
X91750000Y-87000000D02*
X91000000Y-86250000D01*
X92675000Y-87000000D02*
X91750000Y-87000000D01*
%TO.N,/HSE_OUT*%
X87710000Y-88230000D02*
X87350000Y-87870000D01*
X89000000Y-88230000D02*
X87710000Y-88230000D01*
X89770000Y-88230000D02*
X89000000Y-88230000D01*
X92675000Y-87500000D02*
X90500000Y-87500000D01*
X90500000Y-87500000D02*
X89770000Y-88230000D01*
%TO.N,+3.3VA*%
X91480000Y-89230000D02*
X90750000Y-89230000D01*
X91750000Y-89000000D02*
X91500000Y-89250000D01*
X92675000Y-89000000D02*
X91750000Y-89000000D01*
X91500000Y-89250000D02*
X91480000Y-89230000D01*
%TO.N,GND*%
X91480000Y-88270000D02*
X90750000Y-88270000D01*
X91500000Y-88250000D02*
X91480000Y-88270000D01*
X91750000Y-88500000D02*
X91500000Y-88250000D01*
X92675000Y-88500000D02*
X91750000Y-88500000D01*
%TO.N,+3.3V*%
X90500000Y-84980000D02*
X92655000Y-84980000D01*
X92655000Y-84980000D02*
X92675000Y-85000000D01*
%TO.N,GND*%
X102000000Y-85500000D02*
X102250000Y-85750000D01*
X101000000Y-85500000D02*
X102000000Y-85500000D01*
X102250000Y-85750000D02*
X102270000Y-85730000D01*
X102270000Y-85730000D02*
X103000000Y-85730000D01*
%TO.N,+3.3V*%
X102020000Y-84770000D02*
X103000000Y-84770000D01*
X102000000Y-84750000D02*
X102020000Y-84770000D01*
X101750000Y-85000000D02*
X102000000Y-84750000D01*
X101000000Y-85000000D02*
X101750000Y-85000000D01*
D35*
%TO.N,GND*%
X95250000Y-81130000D02*
X94880000Y-81500000D01*
X95250000Y-80000000D02*
X95250000Y-81130000D01*
%TO.N,+3.3V*%
X93700000Y-81280000D02*
X93920000Y-81500000D01*
X93700000Y-80000000D02*
X93700000Y-81280000D01*
D34*
X93920000Y-82330000D02*
X93920000Y-81500000D01*
X93750000Y-82500000D02*
X93920000Y-82330000D01*
X94087500Y-82837500D02*
X93750000Y-82500000D01*
X94087500Y-83587500D02*
X94087500Y-82837500D01*
%TD*%
%TA.AperFunction,Conductor*%
%TO.N,GND*%
G36*
X110098502Y-89655333D02*
G01*
X110144257Y-89708137D01*
X110155428Y-89756696D01*
X110202545Y-91735647D01*
X110202546Y-91735648D01*
X111335244Y-91735648D01*
X111402283Y-91755333D01*
X111448038Y-91808137D01*
X111459053Y-91852770D01*
X111602545Y-94435647D01*
X111602546Y-94435648D01*
X113860665Y-94529736D01*
X113926824Y-94552194D01*
X113970341Y-94606857D01*
X113979500Y-94653628D01*
X113979500Y-95616418D01*
X113979500Y-95616420D01*
X113979499Y-95616420D01*
X114008340Y-95761407D01*
X114008342Y-95761413D01*
X114023474Y-95797946D01*
X114030941Y-95867416D01*
X113999666Y-95929894D01*
X113939576Y-95965546D01*
X113931491Y-95967324D01*
X113445085Y-96057398D01*
X113404861Y-96058209D01*
X113307382Y-96044195D01*
X113307379Y-96044195D01*
X111651704Y-96044195D01*
X111651662Y-96044195D01*
X111642909Y-96044270D01*
X111639476Y-96044331D01*
X111630655Y-96044561D01*
X111027369Y-96065491D01*
X110959688Y-96048143D01*
X110912129Y-95996957D01*
X110900627Y-95961157D01*
X110895625Y-95929894D01*
X110752546Y-95035648D01*
X110752545Y-95035648D01*
X109454496Y-95174724D01*
X109385741Y-95162294D01*
X109334621Y-95114665D01*
X109317327Y-95054611D01*
X109305386Y-94588806D01*
X109283034Y-93672402D01*
X109255643Y-92549396D01*
X109250465Y-92488521D01*
X109247006Y-92464886D01*
X109234522Y-92405081D01*
X109103786Y-91925717D01*
X109058336Y-91813864D01*
X109046964Y-91793326D01*
X109035593Y-91772787D01*
X109035591Y-91772785D01*
X108954975Y-91664432D01*
X108954971Y-91664428D01*
X108840821Y-91576863D01*
X108840817Y-91576861D01*
X108840815Y-91576859D01*
X108787463Y-91546907D01*
X108782706Y-91544325D01*
X108774776Y-91540020D01*
X108774769Y-91540017D01*
X108639137Y-91492011D01*
X108639130Y-91492009D01*
X108587786Y-91481741D01*
X108587778Y-91481739D01*
X108587764Y-91481737D01*
X108538465Y-91474383D01*
X108532525Y-91473794D01*
X108519071Y-91472461D01*
X108475453Y-91470306D01*
X108469223Y-91469999D01*
X108469222Y-91469999D01*
X108432065Y-91469999D01*
X108419456Y-91469356D01*
X108417157Y-91469121D01*
X108390762Y-91463470D01*
X108296134Y-91432113D01*
X108289534Y-91429716D01*
X108284039Y-91427543D01*
X108284036Y-91427542D01*
X108284026Y-91427538D01*
X108261635Y-91420193D01*
X108261621Y-91420189D01*
X108261614Y-91420187D01*
X108226443Y-91410937D01*
X108203198Y-91404823D01*
X108203189Y-91404821D01*
X108202110Y-91404605D01*
X108199924Y-91404168D01*
X108138048Y-91371719D01*
X108103538Y-91310967D01*
X108101802Y-91262987D01*
X108111915Y-91199786D01*
X108134805Y-89757679D01*
X108155551Y-89690961D01*
X108209074Y-89646050D01*
X108258789Y-89635648D01*
X110031463Y-89635648D01*
X110098502Y-89655333D01*
G37*
%TD.AperFunction*%
%TD*%
%TA.AperFunction,Conductor*%
%TO.N,VBUS*%
G36*
X110569664Y-87567112D02*
G01*
X110643215Y-87609577D01*
X110728937Y-87632546D01*
X110795941Y-87650500D01*
X110795942Y-87650500D01*
X110835802Y-87650500D01*
X110846285Y-87652312D01*
X110868479Y-87663218D01*
X110892204Y-87670185D01*
X110899476Y-87675233D01*
X110957668Y-87718795D01*
X110957671Y-87718797D01*
X111092517Y-87769091D01*
X111092516Y-87769091D01*
X111099444Y-87769835D01*
X111152127Y-87775500D01*
X112426000Y-87775499D01*
X112434685Y-87778049D01*
X112443647Y-87776761D01*
X112467687Y-87787739D01*
X112493039Y-87795184D01*
X112498966Y-87802024D01*
X112507203Y-87805786D01*
X112521490Y-87828018D01*
X112538794Y-87847987D01*
X112541081Y-87858502D01*
X112544977Y-87864564D01*
X112550000Y-87899499D01*
X112550000Y-87926000D01*
X112530315Y-87993039D01*
X112477511Y-88038794D01*
X112426000Y-88050000D01*
X111650000Y-88050000D01*
X110400003Y-88174999D01*
X107649999Y-88449999D01*
X107606479Y-91191763D01*
X107585733Y-91258482D01*
X107532210Y-91303393D01*
X107512910Y-91310007D01*
X107379813Y-91343682D01*
X107258115Y-91393794D01*
X107220914Y-91410907D01*
X107206661Y-91418176D01*
X107170958Y-91438247D01*
X107166570Y-91440954D01*
X107140494Y-91453111D01*
X107050052Y-91483082D01*
X107047810Y-91483801D01*
X107039143Y-91486488D01*
X107036006Y-91487461D01*
X107035970Y-91487473D01*
X106993246Y-91502857D01*
X106993240Y-91502859D01*
X106616906Y-91657820D01*
X106502700Y-91723398D01*
X106462158Y-91754338D01*
X106460382Y-91755698D01*
X106360017Y-91858794D01*
X106360016Y-91858796D01*
X106292766Y-91985986D01*
X106272144Y-92043625D01*
X106267486Y-92057257D01*
X106267484Y-92057265D01*
X106242831Y-92199014D01*
X106242830Y-92199019D01*
X106195093Y-93822055D01*
X106195093Y-93822087D01*
X106195093Y-93822092D01*
X106197334Y-93886761D01*
X106198813Y-93901701D01*
X106199824Y-93911913D01*
X106210311Y-93975787D01*
X106273158Y-94248117D01*
X106269053Y-94317866D01*
X106227890Y-94374323D01*
X106162738Y-94399563D01*
X106152334Y-94400000D01*
X104524000Y-94400000D01*
X104456961Y-94380315D01*
X104411206Y-94327511D01*
X104400000Y-94276000D01*
X104400000Y-91799807D01*
X104419685Y-91732768D01*
X104472489Y-91687013D01*
X104497498Y-91678672D01*
X106000000Y-91350000D01*
X105950000Y-89500000D01*
X105903674Y-88063909D01*
X105921187Y-87996272D01*
X105972489Y-87948838D01*
X106013195Y-87936753D01*
X109306731Y-87551340D01*
X109321143Y-87550500D01*
X110507665Y-87550500D01*
X110569664Y-87567112D01*
G37*
%TD.AperFunction*%
%TD*%
%TA.AperFunction,Conductor*%
%TO.N,+3.3V*%
G36*
X108104057Y-91900506D02*
G01*
X108126482Y-91907862D01*
X108130662Y-91909812D01*
X108130666Y-91909814D01*
X108297203Y-91964999D01*
X108399991Y-91975500D01*
X108469230Y-91975499D01*
X108488631Y-91977421D01*
X108540003Y-91987695D01*
X108593355Y-92017647D01*
X108616098Y-92058723D01*
X108746834Y-92538087D01*
X108750293Y-92561722D01*
X108800000Y-94599695D01*
X108800002Y-94599757D01*
X108800001Y-94599757D01*
X108849999Y-96549998D01*
X108850000Y-96550000D01*
X110200000Y-96600000D01*
X110200006Y-96599999D01*
X110200012Y-96600000D01*
X111648271Y-96549755D01*
X111651704Y-96549695D01*
X113307379Y-96549695D01*
X113365570Y-96568602D01*
X113401534Y-96618102D01*
X113406160Y-96642111D01*
X113497731Y-98015958D01*
X113482735Y-98075277D01*
X113480816Y-98078211D01*
X112653391Y-99295012D01*
X112646022Y-99304544D01*
X111626080Y-100469896D01*
X111573528Y-100501232D01*
X111560564Y-100503287D01*
X109950000Y-100650000D01*
X109949955Y-100650004D01*
X108859162Y-100748864D01*
X108840840Y-100748822D01*
X105787588Y-100458036D01*
X105731452Y-100433697D01*
X105700343Y-100381010D01*
X105698000Y-100361737D01*
X105650377Y-98266602D01*
X105655059Y-98234188D01*
X106850000Y-94499695D01*
X106702865Y-93862111D01*
X106700374Y-93836953D01*
X106748112Y-92213877D01*
X106768722Y-92156269D01*
X106809373Y-92125247D01*
X107185702Y-91970287D01*
X107202678Y-91965024D01*
X107202787Y-91964999D01*
X107202797Y-91964999D01*
X107369334Y-91909814D01*
X107436332Y-91868489D01*
X107450594Y-91861215D01*
X107572282Y-91811107D01*
X107629390Y-91805573D01*
X108104057Y-91900506D01*
G37*
%TD.AperFunction*%
%TD*%
M02*
