M48
; DRILL file {KiCad 9.0.7} date 2026-02-01T18:49:12+0530
; FORMAT={-:-/ absolute / metric / decimal}
; #@! TF.CreationDate,2026-02-01T18:49:12+05:30
; #@! TF.GenerationSoftware,Kicad,Pcbnew,9.0.7
; #@! TF.FileFunction,MixedPlating,1,2
FMAT,2
METRIC
; #@! TA.AperFunction,Plated,PTH,ViaDrill
T1C0.300
; #@! TA.AperFunction,Plated,PTH,ComponentDrill
T2C0.550
; #@! TA.AperFunction,Plated,PTH,ComponentDrill
T3C0.850
; #@! TA.AperFunction,Plated,PTH,ComponentDrill
T4C1.000
; #@! TA.AperFunction,NonPlated,NPTH,ComponentDrill
T5C0.800
; #@! TA.AperFunction,NonPlated,NPTH,ComponentDrill
T6C0.900
; #@! TA.AperFunction,NonPlated,NPTH,ComponentDrill
T7C2.200
%
G90
G05
T1
X82.25Y-79.75
X85.475Y-89.1
X86.925Y-84.175
X89.0Y-84.5
X89.75Y-87.25
X89.75Y-91.25
X89.75Y-94.5
X90.525Y-83.05
X92.575Y-99.45
X93.915Y-88.65
X93.925Y-99.4
X94.575Y-84.925
X95.5Y-93.75
X96.625Y-96.34
X98.075Y-96.4
X99.0Y-90.75
X103.75Y-85.75
X109.7Y-94.65
X109.8Y-90.25
X109.8Y-91.0
X110.1Y-84.9
X110.5Y-94.65
X113.85Y-95.25
X115.75Y-93.25
T4
X88.63Y-75.25
X91.17Y-75.25
X91.44Y-102.25
X93.71Y-75.25
X93.98Y-102.25
X96.25Y-75.25
X96.52Y-102.25
X99.06Y-102.25
X101.71Y-75.25
X104.25Y-75.25
X106.79Y-75.25
X109.33Y-75.25
T5
X112.95Y-83.9
X112.95Y-88.9
T6
X79.99Y-81.25
X79.99Y-84.25
T7
X81.0Y-75.25
X81.0Y-102.75
X115.25Y-75.25
X115.25Y-102.75
T2
G00X115.375Y-82.525
M15
G01X116.025Y-82.525
M16
G05
G00X115.375Y-90.275
M15
G01X116.025Y-90.275
M16
G05
T3
G00X111.625Y-82.675
M15
G01X112.175Y-82.675
M16
G05
G00X111.625Y-90.125
M15
G01X112.175Y-90.125
M16
G05
M30
