%TF.GenerationSoftware,KiCad,Pcbnew,9.0.7*%
%TF.CreationDate,2026-02-01T18:49:20+05:30*%
%TF.ProjectId,stm32_Phils_lab,73746d33-325f-4506-9869-6c735f6c6162,rev?*%
%TF.SameCoordinates,Original*%
%TF.FileFunction,Copper,L2,Bot*%
%TF.FilePolarity,Positive*%
%FSLAX46Y46*%
G04 Gerber Fmt 4.6, Leading zero omitted, Abs format (unit mm)*
G04 Created by KiCad (PCBNEW 9.0.7) date 2026-02-01 18:49:20*
%MOMM*%
%LPD*%
G01*
G04 APERTURE LIST*
%TA.AperFunction,ComponentPad*%
%ADD10R,1.700000X1.700000*%
%TD*%
%TA.AperFunction,ComponentPad*%
%ADD11C,1.700000*%
%TD*%
%TA.AperFunction,HeatsinkPad*%
%ADD12O,1.800000X1.150000*%
%TD*%
%TA.AperFunction,HeatsinkPad*%
%ADD13O,2.000000X1.450000*%
%TD*%
%TA.AperFunction,ViaPad*%
%ADD14C,0.600000*%
%TD*%
%TA.AperFunction,Conductor*%
%ADD15C,0.500000*%
%TD*%
%TA.AperFunction,Conductor*%
%ADD16C,0.300000*%
%TD*%
G04 APERTURE END LIST*
D10*
%TO.P,J4,1,Pin_1*%
%TO.N,+3.3V*%
X91440000Y-102250000D03*
D11*
%TO.P,J4,2,Pin_2*%
%TO.N,/I2C2_SCL*%
X93980000Y-102250000D03*
%TO.P,J4,3,Pin_3*%
%TO.N,/I2C2_SDA*%
X96520000Y-102250000D03*
%TO.P,J4,4,Pin_4*%
%TO.N,GND*%
X99060000Y-102250000D03*
%TD*%
D10*
%TO.P,J3,1,Pin_1*%
%TO.N,+3.3V*%
X109330000Y-75250000D03*
D11*
%TO.P,J3,2,Pin_2*%
%TO.N,/SWDIO*%
X106790000Y-75250000D03*
%TO.P,J3,3,Pin_3*%
%TO.N,/SWCLK*%
X104250000Y-75250000D03*
%TO.P,J3,4,Pin_4*%
%TO.N,GND*%
X101710000Y-75250000D03*
%TD*%
D10*
%TO.P,J2,1,Pin_1*%
%TO.N,+3.3V*%
X96250000Y-75250000D03*
D11*
%TO.P,J2,2,Pin_2*%
%TO.N,/USART1_TX*%
X93710000Y-75250000D03*
%TO.P,J2,3,Pin_3*%
%TO.N,/USART1_RX*%
X91170000Y-75250000D03*
%TO.P,J2,4,Pin_4*%
%TO.N,GND*%
X88630000Y-75250000D03*
%TD*%
D12*
%TO.P,J1,6,SSTX-*%
%TO.N,unconnected-(J1-SSTX--Pad6)_3*%
X115700000Y-90275000D03*
D13*
%TO.N,unconnected-(J1-SSTX--Pad6)_2*%
X111900000Y-90125000D03*
%TO.N,unconnected-(J1-SSTX--Pad6)_1*%
X111900000Y-82675000D03*
D12*
%TO.N,unconnected-(J1-SSTX--Pad6)*%
X115700000Y-82525000D03*
%TD*%
D14*
%TO.N,GND*%
X94575000Y-84925000D03*
X90525000Y-83050000D03*
X85475000Y-89100000D03*
X86925000Y-84175000D03*
%TO.N,+3.3V*%
X92575000Y-99450000D03*
X93925000Y-99400000D03*
X96625000Y-96340380D03*
X98075000Y-96400000D03*
%TO.N,GND*%
X110100000Y-84900000D03*
X113850000Y-95250000D03*
X110500000Y-94650000D03*
X109700000Y-94650000D03*
X109800000Y-91000000D03*
X109800000Y-90250000D03*
X82250000Y-79750000D03*
X115750000Y-93250000D03*
X103750000Y-85750000D03*
X89750000Y-94500000D03*
X89000000Y-84500000D03*
X89750000Y-87250000D03*
X89750000Y-91250000D03*
X95500000Y-93750000D03*
X99000000Y-90750000D03*
X93915380Y-88650000D03*
%TD*%
D15*
%TO.N,+3.3V*%
X93875000Y-99450000D02*
X92575000Y-99450000D01*
X93925000Y-99400000D02*
X93875000Y-99450000D01*
D16*
X98250000Y-96350000D02*
X96500000Y-96350000D01*
X98284620Y-96384620D02*
X98250000Y-96350000D01*
X96500000Y-96350000D02*
X96490380Y-96340380D01*
%TD*%
%TA.AperFunction,Conductor*%
%TO.N,GND*%
G36*
X117942539Y-72270185D02*
G01*
X117988294Y-72322989D01*
X117999500Y-72374500D01*
X117999500Y-105875500D01*
X117979815Y-105942539D01*
X117927011Y-105988294D01*
X117875500Y-105999500D01*
X78124500Y-105999500D01*
X78057461Y-105979815D01*
X78011706Y-105927011D01*
X78000500Y-105875500D01*
X78000500Y-102643713D01*
X79649500Y-102643713D01*
X79649500Y-102856286D01*
X79674117Y-103011716D01*
X79682754Y-103066243D01*
X79737260Y-103233995D01*
X79748444Y-103268414D01*
X79844951Y-103457820D01*
X79969890Y-103629786D01*
X80120213Y-103780109D01*
X80292179Y-103905048D01*
X80292181Y-103905049D01*
X80292184Y-103905051D01*
X80481588Y-104001557D01*
X80683757Y-104067246D01*
X80893713Y-104100500D01*
X80893714Y-104100500D01*
X81106286Y-104100500D01*
X81106287Y-104100500D01*
X81316243Y-104067246D01*
X81518412Y-104001557D01*
X81707816Y-103905051D01*
X81729789Y-103889086D01*
X81879786Y-103780109D01*
X81879788Y-103780106D01*
X81879792Y-103780104D01*
X82030104Y-103629792D01*
X82030106Y-103629788D01*
X82030109Y-103629786D01*
X82155048Y-103457820D01*
X82155047Y-103457820D01*
X82155051Y-103457816D01*
X82251557Y-103268412D01*
X82317246Y-103066243D01*
X82350500Y-102856287D01*
X82350500Y-102643713D01*
X82317246Y-102433757D01*
X82251557Y-102231588D01*
X82155051Y-102042184D01*
X82155049Y-102042181D01*
X82155048Y-102042179D01*
X82030109Y-101870213D01*
X81879786Y-101719890D01*
X81707820Y-101594951D01*
X81518414Y-101498444D01*
X81518413Y-101498443D01*
X81518412Y-101498443D01*
X81316243Y-101432754D01*
X81316241Y-101432753D01*
X81316240Y-101432753D01*
X81154957Y-101407208D01*
X81106287Y-101399500D01*
X80893713Y-101399500D01*
X80845042Y-101407208D01*
X80683760Y-101432753D01*
X80481585Y-101498444D01*
X80292179Y-101594951D01*
X80120213Y-101719890D01*
X79969890Y-101870213D01*
X79844951Y-102042179D01*
X79748444Y-102231585D01*
X79748443Y-102231587D01*
X79748443Y-102231588D01*
X79727454Y-102296186D01*
X79682753Y-102433760D01*
X79649500Y-102643713D01*
X78000500Y-102643713D01*
X78000500Y-101355131D01*
X90289500Y-101355131D01*
X90289500Y-103144856D01*
X90289502Y-103144882D01*
X90292413Y-103169987D01*
X90292415Y-103169991D01*
X90337793Y-103272764D01*
X90337794Y-103272765D01*
X90417235Y-103352206D01*
X90520009Y-103397585D01*
X90545135Y-103400500D01*
X92334864Y-103400499D01*
X92334879Y-103400497D01*
X92334882Y-103400497D01*
X92359987Y-103397586D01*
X92359988Y-103397585D01*
X92359991Y-103397585D01*
X92462765Y-103352206D01*
X92542206Y-103272765D01*
X92587585Y-103169991D01*
X92590500Y-103144865D01*
X92590499Y-102407125D01*
X92610183Y-102340089D01*
X92662987Y-102294334D01*
X92732146Y-102284390D01*
X92795702Y-102313415D01*
X92833476Y-102372193D01*
X92836972Y-102387729D01*
X92857829Y-102519410D01*
X92913787Y-102691636D01*
X92913788Y-102691639D01*
X92996006Y-102852997D01*
X93102441Y-102999494D01*
X93102445Y-102999499D01*
X93230500Y-103127554D01*
X93230505Y-103127558D01*
X93354565Y-103217692D01*
X93377006Y-103233996D01*
X93453094Y-103272765D01*
X93538360Y-103316211D01*
X93538363Y-103316212D01*
X93624476Y-103344191D01*
X93710591Y-103372171D01*
X93793429Y-103385291D01*
X93889449Y-103400500D01*
X93889454Y-103400500D01*
X94070551Y-103400500D01*
X94157259Y-103386765D01*
X94249409Y-103372171D01*
X94421639Y-103316211D01*
X94582994Y-103233996D01*
X94729501Y-103127553D01*
X94857553Y-102999501D01*
X94963996Y-102852994D01*
X95046211Y-102691639D01*
X95102171Y-102519409D01*
X95116422Y-102429425D01*
X95127527Y-102359321D01*
X95157456Y-102296186D01*
X95216768Y-102259255D01*
X95286630Y-102260253D01*
X95344863Y-102298863D01*
X95372473Y-102359321D01*
X95397829Y-102519410D01*
X95453787Y-102691636D01*
X95453788Y-102691639D01*
X95536006Y-102852997D01*
X95642441Y-102999494D01*
X95642445Y-102999499D01*
X95770500Y-103127554D01*
X95770505Y-103127558D01*
X95894565Y-103217692D01*
X95917006Y-103233996D01*
X95993094Y-103272765D01*
X96078360Y-103316211D01*
X96078363Y-103316212D01*
X96164476Y-103344191D01*
X96250591Y-103372171D01*
X96333429Y-103385291D01*
X96429449Y-103400500D01*
X96429454Y-103400500D01*
X96610551Y-103400500D01*
X96697259Y-103386765D01*
X96789409Y-103372171D01*
X96961639Y-103316211D01*
X97122994Y-103233996D01*
X97245669Y-103144868D01*
X97269495Y-103127558D01*
X97269497Y-103127555D01*
X97269501Y-103127553D01*
X97397553Y-102999501D01*
X97503996Y-102852994D01*
X97571090Y-102721314D01*
X97619065Y-102670519D01*
X97686886Y-102653724D01*
X97753021Y-102676262D01*
X97796472Y-102730977D01*
X97799506Y-102739292D01*
X97808904Y-102768217D01*
X97905375Y-102957550D01*
X97944728Y-103011716D01*
X98577037Y-102379408D01*
X98594075Y-102442993D01*
X98659901Y-102557007D01*
X98752993Y-102650099D01*
X98867007Y-102715925D01*
X98930590Y-102732962D01*
X98298282Y-103365269D01*
X98298282Y-103365270D01*
X98352449Y-103404624D01*
X98541782Y-103501095D01*
X98743870Y-103566757D01*
X98953754Y-103600000D01*
X99166246Y-103600000D01*
X99376127Y-103566757D01*
X99376130Y-103566757D01*
X99578217Y-103501095D01*
X99767554Y-103404622D01*
X99821716Y-103365270D01*
X99821717Y-103365270D01*
X99189408Y-102732962D01*
X99252993Y-102715925D01*
X99367007Y-102650099D01*
X99460099Y-102557007D01*
X99525925Y-102442993D01*
X99542962Y-102379408D01*
X100175270Y-103011717D01*
X100175270Y-103011716D01*
X100214622Y-102957554D01*
X100311095Y-102768217D01*
X100351549Y-102643713D01*
X113899500Y-102643713D01*
X113899500Y-102856286D01*
X113924117Y-103011716D01*
X113932754Y-103066243D01*
X113987260Y-103233995D01*
X113998444Y-103268414D01*
X114094951Y-103457820D01*
X114219890Y-103629786D01*
X114370213Y-103780109D01*
X114542179Y-103905048D01*
X114542181Y-103905049D01*
X114542184Y-103905051D01*
X114731588Y-104001557D01*
X114933757Y-104067246D01*
X115143713Y-104100500D01*
X115143714Y-104100500D01*
X115356286Y-104100500D01*
X115356287Y-104100500D01*
X115566243Y-104067246D01*
X115768412Y-104001557D01*
X115957816Y-103905051D01*
X115979789Y-103889086D01*
X116129786Y-103780109D01*
X116129788Y-103780106D01*
X116129792Y-103780104D01*
X116280104Y-103629792D01*
X116280106Y-103629788D01*
X116280109Y-103629786D01*
X116405048Y-103457820D01*
X116405047Y-103457820D01*
X116405051Y-103457816D01*
X116501557Y-103268412D01*
X116567246Y-103066243D01*
X116600500Y-102856287D01*
X116600500Y-102643713D01*
X116567246Y-102433757D01*
X116501557Y-102231588D01*
X116405051Y-102042184D01*
X116405049Y-102042181D01*
X116405048Y-102042179D01*
X116280109Y-101870213D01*
X116129786Y-101719890D01*
X115957820Y-101594951D01*
X115768414Y-101498444D01*
X115768413Y-101498443D01*
X115768412Y-101498443D01*
X115566243Y-101432754D01*
X115566241Y-101432753D01*
X115566240Y-101432753D01*
X115404957Y-101407208D01*
X115356287Y-101399500D01*
X115143713Y-101399500D01*
X115095042Y-101407208D01*
X114933760Y-101432753D01*
X114731585Y-101498444D01*
X114542179Y-101594951D01*
X114370213Y-101719890D01*
X114219890Y-101870213D01*
X114094951Y-102042179D01*
X113998444Y-102231585D01*
X113998443Y-102231587D01*
X113998443Y-102231588D01*
X113977454Y-102296186D01*
X113932753Y-102433760D01*
X113899500Y-102643713D01*
X100351549Y-102643713D01*
X100365582Y-102600523D01*
X100365582Y-102600522D01*
X100376758Y-102566126D01*
X100410000Y-102356246D01*
X100410000Y-102143753D01*
X100376757Y-101933872D01*
X100376757Y-101933869D01*
X100311095Y-101731782D01*
X100214624Y-101542449D01*
X100175270Y-101488282D01*
X100175269Y-101488282D01*
X99542962Y-102120590D01*
X99525925Y-102057007D01*
X99460099Y-101942993D01*
X99367007Y-101849901D01*
X99252993Y-101784075D01*
X99189409Y-101767037D01*
X99821716Y-101134728D01*
X99767550Y-101095375D01*
X99578217Y-100998904D01*
X99376129Y-100933242D01*
X99166246Y-100900000D01*
X98953754Y-100900000D01*
X98743872Y-100933242D01*
X98743869Y-100933242D01*
X98541782Y-100998904D01*
X98352439Y-101095380D01*
X98298282Y-101134727D01*
X98298282Y-101134728D01*
X98930591Y-101767037D01*
X98867007Y-101784075D01*
X98752993Y-101849901D01*
X98659901Y-101942993D01*
X98594075Y-102057007D01*
X98577037Y-102120591D01*
X97944728Y-101488282D01*
X97944727Y-101488282D01*
X97905380Y-101542439D01*
X97808905Y-101731781D01*
X97799506Y-101760708D01*
X97760068Y-101818383D01*
X97695709Y-101845581D01*
X97626862Y-101833666D01*
X97575387Y-101786421D01*
X97571090Y-101778684D01*
X97547191Y-101731781D01*
X97503996Y-101647006D01*
X97466175Y-101594949D01*
X97397558Y-101500505D01*
X97397554Y-101500500D01*
X97269499Y-101372445D01*
X97269494Y-101372441D01*
X97145432Y-101282305D01*
X97122996Y-101266005D01*
X96961639Y-101183788D01*
X96961636Y-101183787D01*
X96789410Y-101127829D01*
X96610551Y-101099500D01*
X96610546Y-101099500D01*
X96429454Y-101099500D01*
X96429449Y-101099500D01*
X96250589Y-101127829D01*
X96078363Y-101183787D01*
X96078360Y-101183788D01*
X95917002Y-101266006D01*
X95770505Y-101372441D01*
X95770500Y-101372445D01*
X95642445Y-101500500D01*
X95642441Y-101500505D01*
X95536006Y-101647002D01*
X95453788Y-101808360D01*
X95453787Y-101808363D01*
X95397829Y-101980589D01*
X95372473Y-102140678D01*
X95342544Y-102203813D01*
X95283232Y-102240744D01*
X95213369Y-102239746D01*
X95155137Y-102201136D01*
X95127527Y-102140678D01*
X95111926Y-102042184D01*
X95102171Y-101980591D01*
X95059708Y-101849901D01*
X95046212Y-101808363D01*
X95046211Y-101808360D01*
X95007191Y-101731781D01*
X94963996Y-101647006D01*
X94926175Y-101594949D01*
X94857558Y-101500505D01*
X94857554Y-101500500D01*
X94729499Y-101372445D01*
X94729494Y-101372441D01*
X94582997Y-101266006D01*
X94582996Y-101266005D01*
X94582994Y-101266004D01*
X94506906Y-101227235D01*
X94421639Y-101183788D01*
X94421636Y-101183787D01*
X94249410Y-101127829D01*
X94070551Y-101099500D01*
X94070546Y-101099500D01*
X93889454Y-101099500D01*
X93889449Y-101099500D01*
X93710589Y-101127829D01*
X93538363Y-101183787D01*
X93538360Y-101183788D01*
X93377002Y-101266006D01*
X93230505Y-101372441D01*
X93230500Y-101372445D01*
X93102445Y-101500500D01*
X93102441Y-101500505D01*
X92996006Y-101647002D01*
X92913788Y-101808360D01*
X92913787Y-101808363D01*
X92857829Y-101980589D01*
X92836972Y-102112271D01*
X92807042Y-102175405D01*
X92747731Y-102212336D01*
X92677868Y-102211338D01*
X92619636Y-102172728D01*
X92591522Y-102108764D01*
X92590499Y-102092872D01*
X92590499Y-101355143D01*
X92590499Y-101355136D01*
X92590497Y-101355117D01*
X92587586Y-101330012D01*
X92587585Y-101330010D01*
X92587585Y-101330009D01*
X92542206Y-101227235D01*
X92462765Y-101147794D01*
X92462763Y-101147793D01*
X92359992Y-101102415D01*
X92334865Y-101099500D01*
X90545143Y-101099500D01*
X90545117Y-101099502D01*
X90520012Y-101102413D01*
X90520008Y-101102415D01*
X90417235Y-101147793D01*
X90337794Y-101227234D01*
X90292415Y-101330006D01*
X90292415Y-101330008D01*
X90289500Y-101355131D01*
X78000500Y-101355131D01*
X78000500Y-99370943D01*
X91974500Y-99370943D01*
X91974500Y-99529057D01*
X92002026Y-99631783D01*
X92015423Y-99681783D01*
X92015426Y-99681790D01*
X92094475Y-99818709D01*
X92094479Y-99818714D01*
X92094480Y-99818716D01*
X92206284Y-99930520D01*
X92206286Y-99930521D01*
X92206290Y-99930524D01*
X92327492Y-100000499D01*
X92343216Y-100009577D01*
X92495943Y-100050500D01*
X92495945Y-100050500D01*
X92654055Y-100050500D01*
X92654057Y-100050500D01*
X92806784Y-100009577D01*
X92806785Y-100009576D01*
X92814635Y-100007473D01*
X92814820Y-100008165D01*
X92853363Y-100000500D01*
X94004055Y-100000500D01*
X94004057Y-100000500D01*
X94156784Y-99959577D01*
X94293716Y-99880520D01*
X94405520Y-99768716D01*
X94484577Y-99631784D01*
X94525500Y-99479057D01*
X94525500Y-99320943D01*
X94484577Y-99168216D01*
X94434391Y-99081290D01*
X94405524Y-99031290D01*
X94405518Y-99031282D01*
X94293717Y-98919481D01*
X94293709Y-98919475D01*
X94156790Y-98840426D01*
X94156786Y-98840424D01*
X94156784Y-98840423D01*
X94004057Y-98799500D01*
X93845943Y-98799500D01*
X93693216Y-98840423D01*
X93693213Y-98840424D01*
X93619666Y-98882887D01*
X93557666Y-98899500D01*
X92853363Y-98899500D01*
X92814820Y-98891834D01*
X92814635Y-98892527D01*
X92806785Y-98890423D01*
X92806784Y-98890423D01*
X92654057Y-98849500D01*
X92495943Y-98849500D01*
X92343216Y-98890423D01*
X92343209Y-98890426D01*
X92206290Y-98969475D01*
X92206282Y-98969481D01*
X92094481Y-99081282D01*
X92094475Y-99081290D01*
X92015426Y-99218209D01*
X92015423Y-99218216D01*
X91974500Y-99370943D01*
X78000500Y-99370943D01*
X78000500Y-96261323D01*
X96024500Y-96261323D01*
X96024500Y-96419436D01*
X96065423Y-96572163D01*
X96065426Y-96572170D01*
X96144475Y-96709089D01*
X96144479Y-96709094D01*
X96144480Y-96709096D01*
X96256284Y-96820900D01*
X96256286Y-96820901D01*
X96256290Y-96820904D01*
X96393209Y-96899953D01*
X96393216Y-96899957D01*
X96545943Y-96940880D01*
X96545945Y-96940880D01*
X96704055Y-96940880D01*
X96704057Y-96940880D01*
X96856784Y-96899957D01*
X96908185Y-96870280D01*
X97000277Y-96817113D01*
X97062276Y-96800500D01*
X97574902Y-96800500D01*
X97641941Y-96820185D01*
X97662583Y-96836819D01*
X97706284Y-96880520D01*
X97706286Y-96880521D01*
X97706290Y-96880524D01*
X97843209Y-96959573D01*
X97843216Y-96959577D01*
X97995943Y-97000500D01*
X97995945Y-97000500D01*
X98154055Y-97000500D01*
X98154057Y-97000500D01*
X98306784Y-96959577D01*
X98443716Y-96880520D01*
X98555520Y-96768716D01*
X98571798Y-96740519D01*
X98591501Y-96714841D01*
X98645109Y-96661234D01*
X98704419Y-96558507D01*
X98735119Y-96443929D01*
X98735119Y-96325311D01*
X98717974Y-96261323D01*
X98704420Y-96210734D01*
X98645109Y-96108006D01*
X98526613Y-95989510D01*
X98526611Y-95989509D01*
X98510303Y-95980093D01*
X98484624Y-95960388D01*
X98443717Y-95919481D01*
X98443709Y-95919475D01*
X98306790Y-95840426D01*
X98306786Y-95840424D01*
X98306784Y-95840423D01*
X98154057Y-95799500D01*
X97995943Y-95799500D01*
X97843216Y-95840423D01*
X97843213Y-95840424D01*
X97769666Y-95882887D01*
X97707666Y-95899500D01*
X97084718Y-95899500D01*
X97017679Y-95879815D01*
X96997037Y-95863181D01*
X96993717Y-95859861D01*
X96993709Y-95859855D01*
X96856790Y-95780806D01*
X96856786Y-95780804D01*
X96856784Y-95780803D01*
X96704057Y-95739880D01*
X96545943Y-95739880D01*
X96393216Y-95780803D01*
X96393209Y-95780806D01*
X96256290Y-95859855D01*
X96256282Y-95859861D01*
X96144481Y-95971662D01*
X96144475Y-95971670D01*
X96065426Y-96108589D01*
X96065423Y-96108596D01*
X96024500Y-96261323D01*
X78000500Y-96261323D01*
X78000500Y-90023992D01*
X110599500Y-90023992D01*
X110599500Y-90226007D01*
X110638907Y-90424119D01*
X110638909Y-90424127D01*
X110716212Y-90610752D01*
X110716217Y-90610762D01*
X110828441Y-90778718D01*
X110971281Y-90921558D01*
X111139237Y-91033782D01*
X111139241Y-91033784D01*
X111139244Y-91033786D01*
X111325873Y-91111091D01*
X111523992Y-91150499D01*
X111523996Y-91150500D01*
X111523997Y-91150500D01*
X112276004Y-91150500D01*
X112276005Y-91150499D01*
X112474127Y-91111091D01*
X112660756Y-91033786D01*
X112828718Y-90921558D01*
X112971558Y-90778718D01*
X113083786Y-90610756D01*
X113161091Y-90424127D01*
X113200500Y-90226003D01*
X113200500Y-90188766D01*
X114499500Y-90188766D01*
X114499500Y-90361233D01*
X114533143Y-90530366D01*
X114533146Y-90530378D01*
X114599138Y-90689698D01*
X114599145Y-90689711D01*
X114694954Y-90833098D01*
X114694957Y-90833102D01*
X114816897Y-90955042D01*
X114816901Y-90955045D01*
X114960288Y-91050854D01*
X114960301Y-91050861D01*
X115105708Y-91111090D01*
X115119626Y-91116855D01*
X115288766Y-91150499D01*
X115288769Y-91150500D01*
X115288771Y-91150500D01*
X116111231Y-91150500D01*
X116111232Y-91150499D01*
X116280374Y-91116855D01*
X116439705Y-91050858D01*
X116583099Y-90955045D01*
X116705045Y-90833099D01*
X116800858Y-90689705D01*
X116866855Y-90530374D01*
X116900500Y-90361229D01*
X116900500Y-90188771D01*
X116900500Y-90188768D01*
X116900499Y-90188766D01*
X116866856Y-90019633D01*
X116866855Y-90019626D01*
X116866853Y-90019621D01*
X116800861Y-89860301D01*
X116800854Y-89860288D01*
X116705045Y-89716901D01*
X116705042Y-89716897D01*
X116583102Y-89594957D01*
X116583098Y-89594954D01*
X116439711Y-89499145D01*
X116439698Y-89499138D01*
X116280378Y-89433146D01*
X116280366Y-89433143D01*
X116111232Y-89399500D01*
X116111229Y-89399500D01*
X115288771Y-89399500D01*
X115288768Y-89399500D01*
X115119633Y-89433143D01*
X115119621Y-89433146D01*
X114960301Y-89499138D01*
X114960288Y-89499145D01*
X114816901Y-89594954D01*
X114816897Y-89594957D01*
X114694957Y-89716897D01*
X114694954Y-89716901D01*
X114599145Y-89860288D01*
X114599138Y-89860301D01*
X114533146Y-90019621D01*
X114533143Y-90019633D01*
X114499500Y-90188766D01*
X113200500Y-90188766D01*
X113200500Y-90023997D01*
X113161091Y-89825873D01*
X113118354Y-89722697D01*
X113110885Y-89653227D01*
X113142160Y-89590748D01*
X113185457Y-89560685D01*
X113281811Y-89520775D01*
X113396542Y-89444114D01*
X113494114Y-89346542D01*
X113570775Y-89231811D01*
X113577236Y-89216214D01*
X113623578Y-89104332D01*
X113623580Y-89104328D01*
X113637975Y-89031959D01*
X113650500Y-88968995D01*
X113650500Y-88831004D01*
X113623581Y-88695677D01*
X113623580Y-88695676D01*
X113623580Y-88695672D01*
X113623578Y-88695667D01*
X113570778Y-88568195D01*
X113570771Y-88568182D01*
X113494114Y-88453458D01*
X113494111Y-88453454D01*
X113396545Y-88355888D01*
X113396541Y-88355885D01*
X113281817Y-88279228D01*
X113281804Y-88279221D01*
X113154332Y-88226421D01*
X113154322Y-88226418D01*
X113018995Y-88199500D01*
X113018993Y-88199500D01*
X112881007Y-88199500D01*
X112881005Y-88199500D01*
X112745677Y-88226418D01*
X112745667Y-88226421D01*
X112618195Y-88279221D01*
X112618182Y-88279228D01*
X112503458Y-88355885D01*
X112503454Y-88355888D01*
X112405888Y-88453454D01*
X112405885Y-88453458D01*
X112329228Y-88568182D01*
X112329221Y-88568195D01*
X112276421Y-88695667D01*
X112276418Y-88695677D01*
X112249500Y-88831004D01*
X112249500Y-88975085D01*
X112246710Y-88975085D01*
X112235942Y-89031959D01*
X112187892Y-89082683D01*
X112125541Y-89099500D01*
X111523992Y-89099500D01*
X111325880Y-89138907D01*
X111325872Y-89138909D01*
X111139247Y-89216212D01*
X111139237Y-89216217D01*
X110971281Y-89328441D01*
X110828441Y-89471281D01*
X110716217Y-89639237D01*
X110716212Y-89639247D01*
X110638909Y-89825872D01*
X110638907Y-89825880D01*
X110599500Y-90023992D01*
X78000500Y-90023992D01*
X78000500Y-84318995D01*
X79289499Y-84318995D01*
X79316418Y-84454322D01*
X79316421Y-84454332D01*
X79369221Y-84581804D01*
X79369228Y-84581817D01*
X79445885Y-84696541D01*
X79445888Y-84696545D01*
X79543454Y-84794111D01*
X79543458Y-84794114D01*
X79658182Y-84870771D01*
X79658195Y-84870778D01*
X79785667Y-84923578D01*
X79785672Y-84923580D01*
X79785676Y-84923580D01*
X79785677Y-84923581D01*
X79921004Y-84950500D01*
X79921007Y-84950500D01*
X80058995Y-84950500D01*
X80150041Y-84932389D01*
X80194328Y-84923580D01*
X80321811Y-84870775D01*
X80436542Y-84794114D01*
X80534114Y-84696542D01*
X80610775Y-84581811D01*
X80663580Y-84454328D01*
X80685020Y-84346542D01*
X80690500Y-84318995D01*
X80690500Y-84181004D01*
X80663581Y-84045677D01*
X80663580Y-84045676D01*
X80663580Y-84045672D01*
X80663578Y-84045667D01*
X80610778Y-83918195D01*
X80610771Y-83918182D01*
X80534114Y-83803458D01*
X80534111Y-83803454D01*
X80436545Y-83705888D01*
X80436541Y-83705885D01*
X80321817Y-83629228D01*
X80321804Y-83629221D01*
X80194332Y-83576421D01*
X80194322Y-83576418D01*
X80058995Y-83549500D01*
X80058993Y-83549500D01*
X79921007Y-83549500D01*
X79921005Y-83549500D01*
X79785677Y-83576418D01*
X79785667Y-83576421D01*
X79658195Y-83629221D01*
X79658182Y-83629228D01*
X79543458Y-83705885D01*
X79543454Y-83705888D01*
X79445888Y-83803454D01*
X79445885Y-83803458D01*
X79369228Y-83918182D01*
X79369221Y-83918195D01*
X79316421Y-84045667D01*
X79316418Y-84045677D01*
X79289500Y-84181004D01*
X79289500Y-84181007D01*
X79289500Y-84318993D01*
X79289500Y-84318995D01*
X79289499Y-84318995D01*
X78000500Y-84318995D01*
X78000500Y-82573992D01*
X110599500Y-82573992D01*
X110599500Y-82776007D01*
X110638907Y-82974119D01*
X110638909Y-82974127D01*
X110716212Y-83160752D01*
X110716217Y-83160762D01*
X110828441Y-83328718D01*
X110971281Y-83471558D01*
X111139237Y-83583782D01*
X111139241Y-83583784D01*
X111139244Y-83583786D01*
X111325873Y-83661091D01*
X111499700Y-83695667D01*
X111523992Y-83700499D01*
X111523996Y-83700500D01*
X111523997Y-83700500D01*
X112125541Y-83700500D01*
X112192580Y-83720185D01*
X112238335Y-83772989D01*
X112246980Y-83824915D01*
X112249500Y-83824915D01*
X112249500Y-83831007D01*
X112249500Y-83968993D01*
X112249500Y-83968995D01*
X112249499Y-83968995D01*
X112276418Y-84104322D01*
X112276421Y-84104332D01*
X112329221Y-84231804D01*
X112329228Y-84231817D01*
X112405885Y-84346541D01*
X112405888Y-84346545D01*
X112503454Y-84444111D01*
X112503458Y-84444114D01*
X112618182Y-84520771D01*
X112618195Y-84520778D01*
X112745667Y-84573578D01*
X112745672Y-84573580D01*
X112745676Y-84573580D01*
X112745677Y-84573581D01*
X112881004Y-84600500D01*
X112881007Y-84600500D01*
X113018995Y-84600500D01*
X113112983Y-84581804D01*
X113154328Y-84573580D01*
X113281811Y-84520775D01*
X113396542Y-84444114D01*
X113494114Y-84346542D01*
X113570775Y-84231811D01*
X113623580Y-84104328D01*
X113632389Y-84060041D01*
X113650500Y-83968995D01*
X113650500Y-83831004D01*
X113623581Y-83695677D01*
X113623580Y-83695676D01*
X113623580Y-83695672D01*
X113577236Y-83583787D01*
X113570778Y-83568195D01*
X113570771Y-83568182D01*
X113494114Y-83453458D01*
X113494111Y-83453454D01*
X113396545Y-83355888D01*
X113396541Y-83355885D01*
X113281817Y-83279228D01*
X113281804Y-83279221D01*
X113185462Y-83239316D01*
X113131058Y-83195476D01*
X113108993Y-83129182D01*
X113118351Y-83077307D01*
X113161091Y-82974127D01*
X113200500Y-82776003D01*
X113200500Y-82573997D01*
X113200345Y-82573222D01*
X113177203Y-82456870D01*
X113173602Y-82438766D01*
X114499500Y-82438766D01*
X114499500Y-82611233D01*
X114533143Y-82780366D01*
X114533146Y-82780378D01*
X114599138Y-82939698D01*
X114599145Y-82939711D01*
X114694954Y-83083098D01*
X114694957Y-83083102D01*
X114816897Y-83205042D01*
X114816901Y-83205045D01*
X114960288Y-83300854D01*
X114960301Y-83300861D01*
X115093142Y-83355885D01*
X115119626Y-83366855D01*
X115288766Y-83400499D01*
X115288769Y-83400500D01*
X115288771Y-83400500D01*
X116111231Y-83400500D01*
X116111232Y-83400499D01*
X116280374Y-83366855D01*
X116439705Y-83300858D01*
X116583099Y-83205045D01*
X116705045Y-83083099D01*
X116800858Y-82939705D01*
X116866855Y-82780374D01*
X116900500Y-82611229D01*
X116900500Y-82438771D01*
X116900500Y-82438768D01*
X116900499Y-82438766D01*
X116887989Y-82375873D01*
X116866855Y-82269626D01*
X116833557Y-82189237D01*
X116800861Y-82110301D01*
X116800854Y-82110288D01*
X116705045Y-81966901D01*
X116705042Y-81966897D01*
X116583102Y-81844957D01*
X116583098Y-81844954D01*
X116439711Y-81749145D01*
X116439698Y-81749138D01*
X116280378Y-81683146D01*
X116280366Y-81683143D01*
X116111232Y-81649500D01*
X116111229Y-81649500D01*
X115288771Y-81649500D01*
X115288768Y-81649500D01*
X115119633Y-81683143D01*
X115119621Y-81683146D01*
X114960301Y-81749138D01*
X114960288Y-81749145D01*
X114816901Y-81844954D01*
X114816897Y-81844957D01*
X114694957Y-81966897D01*
X114694954Y-81966901D01*
X114599145Y-82110288D01*
X114599138Y-82110301D01*
X114533146Y-82269621D01*
X114533143Y-82269633D01*
X114499500Y-82438766D01*
X113173602Y-82438766D01*
X113161092Y-82375880D01*
X113161091Y-82375873D01*
X113083786Y-82189244D01*
X113083784Y-82189241D01*
X113083782Y-82189237D01*
X112971558Y-82021281D01*
X112828718Y-81878441D01*
X112660762Y-81766217D01*
X112660752Y-81766212D01*
X112474127Y-81688909D01*
X112474119Y-81688907D01*
X112276007Y-81649500D01*
X112276003Y-81649500D01*
X111523997Y-81649500D01*
X111523992Y-81649500D01*
X111325880Y-81688907D01*
X111325872Y-81688909D01*
X111139247Y-81766212D01*
X111139237Y-81766217D01*
X110971281Y-81878441D01*
X110828441Y-82021281D01*
X110716217Y-82189237D01*
X110716212Y-82189247D01*
X110638909Y-82375872D01*
X110638907Y-82375880D01*
X110599500Y-82573992D01*
X78000500Y-82573992D01*
X78000500Y-81318995D01*
X79289499Y-81318995D01*
X79316418Y-81454322D01*
X79316421Y-81454332D01*
X79369221Y-81581804D01*
X79369228Y-81581817D01*
X79445885Y-81696541D01*
X79445888Y-81696545D01*
X79543454Y-81794111D01*
X79543458Y-81794114D01*
X79658182Y-81870771D01*
X79658195Y-81870778D01*
X79785667Y-81923578D01*
X79785672Y-81923580D01*
X79785676Y-81923580D01*
X79785677Y-81923581D01*
X79921004Y-81950500D01*
X79921007Y-81950500D01*
X80058995Y-81950500D01*
X80150041Y-81932389D01*
X80194328Y-81923580D01*
X80321811Y-81870775D01*
X80436542Y-81794114D01*
X80534114Y-81696542D01*
X80610775Y-81581811D01*
X80663580Y-81454328D01*
X80690500Y-81318993D01*
X80690500Y-81181007D01*
X80690500Y-81181004D01*
X80663581Y-81045677D01*
X80663580Y-81045676D01*
X80663580Y-81045672D01*
X80663578Y-81045667D01*
X80610778Y-80918195D01*
X80610771Y-80918182D01*
X80534114Y-80803458D01*
X80534111Y-80803454D01*
X80436545Y-80705888D01*
X80436541Y-80705885D01*
X80321817Y-80629228D01*
X80321804Y-80629221D01*
X80194332Y-80576421D01*
X80194322Y-80576418D01*
X80058995Y-80549500D01*
X80058993Y-80549500D01*
X79921007Y-80549500D01*
X79921005Y-80549500D01*
X79785677Y-80576418D01*
X79785667Y-80576421D01*
X79658195Y-80629221D01*
X79658182Y-80629228D01*
X79543458Y-80705885D01*
X79543454Y-80705888D01*
X79445888Y-80803454D01*
X79445885Y-80803458D01*
X79369228Y-80918182D01*
X79369221Y-80918195D01*
X79316421Y-81045667D01*
X79316418Y-81045677D01*
X79289500Y-81181004D01*
X79289500Y-81181007D01*
X79289500Y-81318993D01*
X79289500Y-81318995D01*
X79289499Y-81318995D01*
X78000500Y-81318995D01*
X78000500Y-75143713D01*
X79649500Y-75143713D01*
X79649500Y-75356286D01*
X79682735Y-75566127D01*
X79682754Y-75566243D01*
X79738982Y-75739295D01*
X79748444Y-75768414D01*
X79844951Y-75957820D01*
X79969890Y-76129786D01*
X80120213Y-76280109D01*
X80292179Y-76405048D01*
X80292181Y-76405049D01*
X80292184Y-76405051D01*
X80481588Y-76501557D01*
X80683757Y-76567246D01*
X80893713Y-76600500D01*
X80893714Y-76600500D01*
X81106286Y-76600500D01*
X81106287Y-76600500D01*
X81316243Y-76567246D01*
X81518412Y-76501557D01*
X81707816Y-76405051D01*
X81762572Y-76365269D01*
X81879786Y-76280109D01*
X81879788Y-76280106D01*
X81879792Y-76280104D01*
X82030104Y-76129792D01*
X82030106Y-76129788D01*
X82030109Y-76129786D01*
X82155048Y-75957820D01*
X82155047Y-75957820D01*
X82155051Y-75957816D01*
X82251557Y-75768412D01*
X82317246Y-75566243D01*
X82350500Y-75356287D01*
X82350500Y-75143753D01*
X87280000Y-75143753D01*
X87280000Y-75356246D01*
X87313242Y-75566127D01*
X87313242Y-75566130D01*
X87378904Y-75768217D01*
X87475375Y-75957550D01*
X87514728Y-76011716D01*
X88147037Y-75379408D01*
X88164075Y-75442993D01*
X88229901Y-75557007D01*
X88322993Y-75650099D01*
X88437007Y-75715925D01*
X88500590Y-75732962D01*
X87868282Y-76365269D01*
X87868282Y-76365270D01*
X87922449Y-76404624D01*
X88111782Y-76501095D01*
X88313870Y-76566757D01*
X88523754Y-76600000D01*
X88736246Y-76600000D01*
X88946127Y-76566757D01*
X88946130Y-76566757D01*
X89148217Y-76501095D01*
X89337554Y-76404622D01*
X89391716Y-76365270D01*
X89391717Y-76365270D01*
X88759408Y-75732962D01*
X88822993Y-75715925D01*
X88937007Y-75650099D01*
X89030099Y-75557007D01*
X89095925Y-75442993D01*
X89112962Y-75379408D01*
X89745270Y-76011717D01*
X89745270Y-76011716D01*
X89784622Y-75957554D01*
X89881095Y-75768217D01*
X89890492Y-75739295D01*
X89929928Y-75681618D01*
X89994286Y-75654419D01*
X90063133Y-75666331D01*
X90114610Y-75713574D01*
X90118908Y-75721314D01*
X90186004Y-75852995D01*
X90292441Y-75999494D01*
X90292445Y-75999499D01*
X90420500Y-76127554D01*
X90420505Y-76127558D01*
X90548287Y-76220396D01*
X90567006Y-76233996D01*
X90672484Y-76287740D01*
X90728360Y-76316211D01*
X90728363Y-76316212D01*
X90814476Y-76344191D01*
X90900591Y-76372171D01*
X90983429Y-76385291D01*
X91079449Y-76400500D01*
X91079454Y-76400500D01*
X91260551Y-76400500D01*
X91347259Y-76386765D01*
X91439409Y-76372171D01*
X91611639Y-76316211D01*
X91772994Y-76233996D01*
X91919501Y-76127553D01*
X92047553Y-75999501D01*
X92153996Y-75852994D01*
X92236211Y-75691639D01*
X92292171Y-75519409D01*
X92313027Y-75387729D01*
X92317527Y-75359321D01*
X92347456Y-75296186D01*
X92406768Y-75259255D01*
X92476630Y-75260253D01*
X92534863Y-75298863D01*
X92562473Y-75359321D01*
X92587829Y-75519410D01*
X92643787Y-75691636D01*
X92643788Y-75691639D01*
X92726006Y-75852997D01*
X92832441Y-75999494D01*
X92832445Y-75999499D01*
X92960500Y-76127554D01*
X92960505Y-76127558D01*
X93088287Y-76220396D01*
X93107006Y-76233996D01*
X93212484Y-76287740D01*
X93268360Y-76316211D01*
X93268363Y-76316212D01*
X93354476Y-76344191D01*
X93440591Y-76372171D01*
X93523429Y-76385291D01*
X93619449Y-76400500D01*
X93619454Y-76400500D01*
X93800551Y-76400500D01*
X93887259Y-76386765D01*
X93979409Y-76372171D01*
X94151639Y-76316211D01*
X94312994Y-76233996D01*
X94459501Y-76127553D01*
X94587553Y-75999501D01*
X94693996Y-75852994D01*
X94776211Y-75691639D01*
X94832171Y-75519409D01*
X94853027Y-75387729D01*
X94882956Y-75324595D01*
X94942267Y-75287663D01*
X95012130Y-75288661D01*
X95070363Y-75327271D01*
X95098477Y-75391234D01*
X95099500Y-75407127D01*
X95099500Y-76144856D01*
X95099502Y-76144882D01*
X95102413Y-76169987D01*
X95102415Y-76169991D01*
X95147793Y-76272764D01*
X95147794Y-76272765D01*
X95227235Y-76352206D01*
X95330009Y-76397585D01*
X95355135Y-76400500D01*
X97144864Y-76400499D01*
X97144879Y-76400497D01*
X97144882Y-76400497D01*
X97169987Y-76397586D01*
X97169988Y-76397585D01*
X97169991Y-76397585D01*
X97272765Y-76352206D01*
X97352206Y-76272765D01*
X97397585Y-76169991D01*
X97400500Y-76144865D01*
X97400499Y-75143753D01*
X100360000Y-75143753D01*
X100360000Y-75356246D01*
X100393242Y-75566127D01*
X100393242Y-75566130D01*
X100458904Y-75768217D01*
X100555375Y-75957550D01*
X100594728Y-76011716D01*
X101227037Y-75379408D01*
X101244075Y-75442993D01*
X101309901Y-75557007D01*
X101402993Y-75650099D01*
X101517007Y-75715925D01*
X101580590Y-75732962D01*
X100948282Y-76365269D01*
X100948282Y-76365270D01*
X101002449Y-76404624D01*
X101191782Y-76501095D01*
X101393870Y-76566757D01*
X101603754Y-76600000D01*
X101816246Y-76600000D01*
X102026127Y-76566757D01*
X102026130Y-76566757D01*
X102228217Y-76501095D01*
X102417554Y-76404622D01*
X102471716Y-76365270D01*
X102471717Y-76365270D01*
X101839408Y-75732962D01*
X101902993Y-75715925D01*
X102017007Y-75650099D01*
X102110099Y-75557007D01*
X102175925Y-75442993D01*
X102192962Y-75379409D01*
X102825270Y-76011717D01*
X102825270Y-76011716D01*
X102864622Y-75957554D01*
X102961095Y-75768217D01*
X102970492Y-75739295D01*
X103009928Y-75681618D01*
X103074286Y-75654419D01*
X103143133Y-75666331D01*
X103194610Y-75713574D01*
X103198908Y-75721314D01*
X103266004Y-75852995D01*
X103372441Y-75999494D01*
X103372445Y-75999499D01*
X103500500Y-76127554D01*
X103500505Y-76127558D01*
X103628287Y-76220396D01*
X103647006Y-76233996D01*
X103752484Y-76287740D01*
X103808360Y-76316211D01*
X103808363Y-76316212D01*
X103894476Y-76344191D01*
X103980591Y-76372171D01*
X104063429Y-76385291D01*
X104159449Y-76400500D01*
X104159454Y-76400500D01*
X104340551Y-76400500D01*
X104427259Y-76386765D01*
X104519409Y-76372171D01*
X104691639Y-76316211D01*
X104852994Y-76233996D01*
X104999501Y-76127553D01*
X105127553Y-75999501D01*
X105233996Y-75852994D01*
X105316211Y-75691639D01*
X105372171Y-75519409D01*
X105393027Y-75387729D01*
X105397527Y-75359321D01*
X105427456Y-75296186D01*
X105486768Y-75259255D01*
X105556630Y-75260253D01*
X105614863Y-75298863D01*
X105642473Y-75359321D01*
X105667829Y-75519410D01*
X105723787Y-75691636D01*
X105723788Y-75691639D01*
X105806006Y-75852997D01*
X105912441Y-75999494D01*
X105912445Y-75999499D01*
X106040500Y-76127554D01*
X106040505Y-76127558D01*
X106168287Y-76220396D01*
X106187006Y-76233996D01*
X106292484Y-76287740D01*
X106348360Y-76316211D01*
X106348363Y-76316212D01*
X106434476Y-76344191D01*
X106520591Y-76372171D01*
X106603429Y-76385291D01*
X106699449Y-76400500D01*
X106699454Y-76400500D01*
X106880551Y-76400500D01*
X106967259Y-76386765D01*
X107059409Y-76372171D01*
X107231639Y-76316211D01*
X107392994Y-76233996D01*
X107539501Y-76127553D01*
X107667553Y-75999501D01*
X107773996Y-75852994D01*
X107856211Y-75691639D01*
X107912171Y-75519409D01*
X107933027Y-75387729D01*
X107962956Y-75324595D01*
X108022267Y-75287663D01*
X108092130Y-75288661D01*
X108150363Y-75327271D01*
X108178477Y-75391234D01*
X108179500Y-75407127D01*
X108179500Y-76144856D01*
X108179502Y-76144882D01*
X108182413Y-76169987D01*
X108182415Y-76169991D01*
X108227793Y-76272764D01*
X108227794Y-76272765D01*
X108307235Y-76352206D01*
X108410009Y-76397585D01*
X108435135Y-76400500D01*
X110224864Y-76400499D01*
X110224879Y-76400497D01*
X110224882Y-76400497D01*
X110249987Y-76397586D01*
X110249988Y-76397585D01*
X110249991Y-76397585D01*
X110352765Y-76352206D01*
X110432206Y-76272765D01*
X110477585Y-76169991D01*
X110480500Y-76144865D01*
X110480499Y-75143713D01*
X113899500Y-75143713D01*
X113899500Y-75356286D01*
X113932735Y-75566127D01*
X113932754Y-75566243D01*
X113988982Y-75739295D01*
X113998444Y-75768414D01*
X114094951Y-75957820D01*
X114219890Y-76129786D01*
X114370213Y-76280109D01*
X114542179Y-76405048D01*
X114542181Y-76405049D01*
X114542184Y-76405051D01*
X114731588Y-76501557D01*
X114933757Y-76567246D01*
X115143713Y-76600500D01*
X115143714Y-76600500D01*
X115356286Y-76600500D01*
X115356287Y-76600500D01*
X115566243Y-76567246D01*
X115768412Y-76501557D01*
X115957816Y-76405051D01*
X116012572Y-76365269D01*
X116129786Y-76280109D01*
X116129788Y-76280106D01*
X116129792Y-76280104D01*
X116280104Y-76129792D01*
X116280106Y-76129788D01*
X116280109Y-76129786D01*
X116405048Y-75957820D01*
X116405047Y-75957820D01*
X116405051Y-75957816D01*
X116501557Y-75768412D01*
X116567246Y-75566243D01*
X116600500Y-75356287D01*
X116600500Y-75143713D01*
X116567246Y-74933757D01*
X116501557Y-74731588D01*
X116405051Y-74542184D01*
X116405049Y-74542181D01*
X116405048Y-74542179D01*
X116280109Y-74370213D01*
X116129786Y-74219890D01*
X115957820Y-74094951D01*
X115768414Y-73998444D01*
X115768413Y-73998443D01*
X115768412Y-73998443D01*
X115566243Y-73932754D01*
X115566241Y-73932753D01*
X115566240Y-73932753D01*
X115404957Y-73907208D01*
X115356287Y-73899500D01*
X115143713Y-73899500D01*
X115095042Y-73907208D01*
X114933760Y-73932753D01*
X114731585Y-73998444D01*
X114542179Y-74094951D01*
X114370213Y-74219890D01*
X114219890Y-74370213D01*
X114094951Y-74542179D01*
X113998444Y-74731585D01*
X113932753Y-74933760D01*
X113899500Y-75143713D01*
X110480499Y-75143713D01*
X110480499Y-74355136D01*
X110480497Y-74355117D01*
X110477586Y-74330012D01*
X110477585Y-74330010D01*
X110477585Y-74330009D01*
X110432206Y-74227235D01*
X110352765Y-74147794D01*
X110352763Y-74147793D01*
X110249992Y-74102415D01*
X110224865Y-74099500D01*
X108435143Y-74099500D01*
X108435117Y-74099502D01*
X108410012Y-74102413D01*
X108410008Y-74102415D01*
X108307235Y-74147793D01*
X108227794Y-74227234D01*
X108182415Y-74330006D01*
X108182415Y-74330008D01*
X108179500Y-74355131D01*
X108179500Y-75092871D01*
X108159815Y-75159910D01*
X108107011Y-75205665D01*
X108037853Y-75215609D01*
X107974297Y-75186584D01*
X107936523Y-75127806D01*
X107933027Y-75112269D01*
X107924274Y-75057007D01*
X107912171Y-74980591D01*
X107856211Y-74808361D01*
X107856211Y-74808360D01*
X107817091Y-74731585D01*
X107773996Y-74647006D01*
X107760396Y-74628287D01*
X107667558Y-74500505D01*
X107667554Y-74500500D01*
X107539499Y-74372445D01*
X107539494Y-74372441D01*
X107392997Y-74266006D01*
X107392996Y-74266005D01*
X107392994Y-74266004D01*
X107316906Y-74227235D01*
X107231639Y-74183788D01*
X107231636Y-74183787D01*
X107059410Y-74127829D01*
X106880551Y-74099500D01*
X106880546Y-74099500D01*
X106699454Y-74099500D01*
X106699449Y-74099500D01*
X106520589Y-74127829D01*
X106348363Y-74183787D01*
X106348360Y-74183788D01*
X106187002Y-74266006D01*
X106040505Y-74372441D01*
X106040500Y-74372445D01*
X105912445Y-74500500D01*
X105912441Y-74500505D01*
X105806006Y-74647002D01*
X105723788Y-74808360D01*
X105723787Y-74808363D01*
X105667829Y-74980589D01*
X105642473Y-75140678D01*
X105612544Y-75203813D01*
X105553232Y-75240744D01*
X105483369Y-75239746D01*
X105425137Y-75201136D01*
X105397527Y-75140678D01*
X105383740Y-75053639D01*
X105372171Y-74980591D01*
X105316211Y-74808361D01*
X105316211Y-74808360D01*
X105277091Y-74731585D01*
X105233996Y-74647006D01*
X105220396Y-74628287D01*
X105127558Y-74500505D01*
X105127554Y-74500500D01*
X104999499Y-74372445D01*
X104999494Y-74372441D01*
X104852997Y-74266006D01*
X104852996Y-74266005D01*
X104852994Y-74266004D01*
X104776906Y-74227235D01*
X104691639Y-74183788D01*
X104691636Y-74183787D01*
X104519410Y-74127829D01*
X104340551Y-74099500D01*
X104340546Y-74099500D01*
X104159454Y-74099500D01*
X104159449Y-74099500D01*
X103980589Y-74127829D01*
X103808363Y-74183787D01*
X103808360Y-74183788D01*
X103647002Y-74266006D01*
X103500505Y-74372441D01*
X103500500Y-74372445D01*
X103372445Y-74500500D01*
X103372441Y-74500505D01*
X103266004Y-74647004D01*
X103198908Y-74778685D01*
X103150933Y-74829480D01*
X103083112Y-74846275D01*
X103016977Y-74823737D01*
X102973527Y-74769021D01*
X102970492Y-74760705D01*
X102961094Y-74731780D01*
X102864624Y-74542449D01*
X102825270Y-74488282D01*
X102825269Y-74488282D01*
X102192962Y-75120590D01*
X102175925Y-75057007D01*
X102110099Y-74942993D01*
X102017007Y-74849901D01*
X101902993Y-74784075D01*
X101839409Y-74767037D01*
X102471716Y-74134728D01*
X102417550Y-74095375D01*
X102228217Y-73998904D01*
X102026129Y-73933242D01*
X101816246Y-73900000D01*
X101603754Y-73900000D01*
X101393872Y-73933242D01*
X101393869Y-73933242D01*
X101191782Y-73998904D01*
X101002439Y-74095380D01*
X100948282Y-74134727D01*
X100948282Y-74134728D01*
X101580591Y-74767037D01*
X101517007Y-74784075D01*
X101402993Y-74849901D01*
X101309901Y-74942993D01*
X101244075Y-75057007D01*
X101227037Y-75120591D01*
X100594728Y-74488282D01*
X100594727Y-74488282D01*
X100555380Y-74542439D01*
X100458904Y-74731782D01*
X100393242Y-74933869D01*
X100393242Y-74933872D01*
X100360000Y-75143753D01*
X97400499Y-75143753D01*
X97400499Y-74355136D01*
X97400497Y-74355117D01*
X97397586Y-74330012D01*
X97397585Y-74330011D01*
X97397585Y-74330009D01*
X97352206Y-74227235D01*
X97272765Y-74147794D01*
X97272763Y-74147793D01*
X97169992Y-74102415D01*
X97144865Y-74099500D01*
X95355143Y-74099500D01*
X95355117Y-74099502D01*
X95330012Y-74102413D01*
X95330008Y-74102415D01*
X95227235Y-74147793D01*
X95147794Y-74227234D01*
X95102415Y-74330006D01*
X95102415Y-74330008D01*
X95099500Y-74355131D01*
X95099500Y-75092871D01*
X95079815Y-75159910D01*
X95027011Y-75205665D01*
X94957853Y-75215609D01*
X94894297Y-75186584D01*
X94856523Y-75127806D01*
X94853027Y-75112269D01*
X94844274Y-75057007D01*
X94832171Y-74980591D01*
X94776211Y-74808361D01*
X94776211Y-74808360D01*
X94737091Y-74731585D01*
X94693996Y-74647006D01*
X94680396Y-74628287D01*
X94587558Y-74500505D01*
X94587554Y-74500500D01*
X94459499Y-74372445D01*
X94459494Y-74372441D01*
X94312997Y-74266006D01*
X94312996Y-74266005D01*
X94312994Y-74266004D01*
X94236906Y-74227235D01*
X94151639Y-74183788D01*
X94151636Y-74183787D01*
X93979410Y-74127829D01*
X93800551Y-74099500D01*
X93800546Y-74099500D01*
X93619454Y-74099500D01*
X93619449Y-74099500D01*
X93440589Y-74127829D01*
X93268363Y-74183787D01*
X93268360Y-74183788D01*
X93107002Y-74266006D01*
X92960505Y-74372441D01*
X92960500Y-74372445D01*
X92832445Y-74500500D01*
X92832441Y-74500505D01*
X92726006Y-74647002D01*
X92643788Y-74808360D01*
X92643787Y-74808363D01*
X92587829Y-74980589D01*
X92562473Y-75140678D01*
X92532544Y-75203813D01*
X92473232Y-75240744D01*
X92403369Y-75239746D01*
X92345137Y-75201136D01*
X92317527Y-75140678D01*
X92303740Y-75053639D01*
X92292171Y-74980591D01*
X92236211Y-74808361D01*
X92236211Y-74808360D01*
X92197091Y-74731585D01*
X92153996Y-74647006D01*
X92140396Y-74628287D01*
X92047558Y-74500505D01*
X92047554Y-74500500D01*
X91919499Y-74372445D01*
X91919494Y-74372441D01*
X91772997Y-74266006D01*
X91772996Y-74266005D01*
X91772994Y-74266004D01*
X91696906Y-74227235D01*
X91611639Y-74183788D01*
X91611636Y-74183787D01*
X91439410Y-74127829D01*
X91260551Y-74099500D01*
X91260546Y-74099500D01*
X91079454Y-74099500D01*
X91079449Y-74099500D01*
X90900589Y-74127829D01*
X90728363Y-74183787D01*
X90728360Y-74183788D01*
X90567002Y-74266006D01*
X90420505Y-74372441D01*
X90420500Y-74372445D01*
X90292445Y-74500500D01*
X90292441Y-74500505D01*
X90186004Y-74647004D01*
X90118908Y-74778685D01*
X90070933Y-74829480D01*
X90003112Y-74846275D01*
X89936977Y-74823737D01*
X89893527Y-74769021D01*
X89890492Y-74760705D01*
X89881094Y-74731780D01*
X89784624Y-74542449D01*
X89745270Y-74488282D01*
X89745269Y-74488282D01*
X89112962Y-75120590D01*
X89095925Y-75057007D01*
X89030099Y-74942993D01*
X88937007Y-74849901D01*
X88822993Y-74784075D01*
X88759409Y-74767037D01*
X89391716Y-74134728D01*
X89337550Y-74095375D01*
X89148217Y-73998904D01*
X88946129Y-73933242D01*
X88736246Y-73900000D01*
X88523754Y-73900000D01*
X88313872Y-73933242D01*
X88313869Y-73933242D01*
X88111782Y-73998904D01*
X87922439Y-74095380D01*
X87868282Y-74134727D01*
X87868282Y-74134728D01*
X88500591Y-74767037D01*
X88437007Y-74784075D01*
X88322993Y-74849901D01*
X88229901Y-74942993D01*
X88164075Y-75057007D01*
X88147037Y-75120591D01*
X87514728Y-74488282D01*
X87514727Y-74488282D01*
X87475380Y-74542439D01*
X87378904Y-74731782D01*
X87313242Y-74933869D01*
X87313242Y-74933872D01*
X87280000Y-75143753D01*
X82350500Y-75143753D01*
X82350500Y-75143713D01*
X82317246Y-74933757D01*
X82251557Y-74731588D01*
X82155051Y-74542184D01*
X82155049Y-74542181D01*
X82155048Y-74542179D01*
X82030109Y-74370213D01*
X81879786Y-74219890D01*
X81707820Y-74094951D01*
X81518414Y-73998444D01*
X81518413Y-73998443D01*
X81518412Y-73998443D01*
X81316243Y-73932754D01*
X81316241Y-73932753D01*
X81316240Y-73932753D01*
X81154957Y-73907208D01*
X81106287Y-73899500D01*
X80893713Y-73899500D01*
X80845042Y-73907208D01*
X80683760Y-73932753D01*
X80481585Y-73998444D01*
X80292179Y-74094951D01*
X80120213Y-74219890D01*
X79969890Y-74370213D01*
X79844951Y-74542179D01*
X79748444Y-74731585D01*
X79682753Y-74933760D01*
X79649500Y-75143713D01*
X78000500Y-75143713D01*
X78000500Y-72374500D01*
X78020185Y-72307461D01*
X78072989Y-72261706D01*
X78124500Y-72250500D01*
X117875500Y-72250500D01*
X117942539Y-72270185D01*
G37*
%TD.AperFunction*%
%TD*%
M02*
