%TF.GenerationSoftware,KiCad,Pcbnew,9.0.7*%
%TF.CreationDate,2026-01-30T20:24:23+05:30*%
%TF.ProjectId,Servo motor tester,53657276-6f20-46d6-9f74-6f7220746573,rev?*%
%TF.SameCoordinates,Original*%
%TF.FileFunction,Copper,L1,Top*%
%TF.FilePolarity,Positive*%
%FSLAX46Y46*%
G04 Gerber Fmt 4.6, Leading zero omitted, Abs format (unit mm)*
G04 Created by KiCad (PCBNEW 9.0.7) date 2026-01-30 20:24:23*
%MOMM*%
%LPD*%
G01*
G04 APERTURE LIST*
G04 Aperture macros list*
%AMRoundRect*
0 Rectangle with rounded corners*
0 $1 Rounding radius*
0 $2 $3 $4 $5 $6 $7 $8 $9 X,Y pos of 4 corners*
0 Add a 4 corners polygon primitive as box body*
4,1,4,$2,$3,$4,$5,$6,$7,$8,$9,$2,$3,0*
0 Add four circle primitives for the rounded corners*
1,1,$1+$1,$2,$3*
1,1,$1+$1,$4,$5*
1,1,$1+$1,$6,$7*
1,1,$1+$1,$8,$9*
0 Add four rect primitives between the rounded corners*
20,1,$1+$1,$2,$3,$4,$5,0*
20,1,$1+$1,$4,$5,$6,$7,0*
20,1,$1+$1,$6,$7,$8,$9,0*
20,1,$1+$1,$8,$9,$2,$3,0*%
G04 Aperture macros list end*
%TA.AperFunction,ComponentPad*%
%ADD10C,3.000000*%
%TD*%
%TA.AperFunction,ComponentPad*%
%ADD11R,3.000000X3.000000*%
%TD*%
%TA.AperFunction,ComponentPad*%
%ADD12RoundRect,0.250000X-0.550000X-0.550000X0.550000X-0.550000X0.550000X0.550000X-0.550000X0.550000X0*%
%TD*%
%TA.AperFunction,ComponentPad*%
%ADD13C,1.600000*%
%TD*%
%TA.AperFunction,ComponentPad*%
%ADD14C,1.400000*%
%TD*%
%TA.AperFunction,ComponentPad*%
%ADD15R,1.700000X1.700000*%
%TD*%
%TA.AperFunction,ComponentPad*%
%ADD16C,1.700000*%
%TD*%
%TA.AperFunction,ComponentPad*%
%ADD17R,1.800000X1.800000*%
%TD*%
%TA.AperFunction,ComponentPad*%
%ADD18C,1.800000*%
%TD*%
%TA.AperFunction,ComponentPad*%
%ADD19RoundRect,0.250000X-0.550000X0.550000X-0.550000X-0.550000X0.550000X-0.550000X0.550000X0.550000X0*%
%TD*%
%TA.AperFunction,Conductor*%
%ADD20C,0.500000*%
%TD*%
G04 APERTURE END LIST*
D10*
%TO.P,RV1,3,3*%
%TO.N,Net-(D1-A)*%
X122500000Y-69000000D03*
%TO.P,RV1,2,2*%
X127500000Y-69000000D03*
D11*
%TO.P,RV1,1,1*%
%TO.N,Net-(R2-Pad1)*%
X132500000Y-69000000D03*
%TD*%
D12*
%TO.P,U1,1,GND*%
%TO.N,GND*%
X120750000Y-79380000D03*
D13*
%TO.P,U1,2,TRIG*%
%TO.N,Net-(D1-K)*%
X120750000Y-81920000D03*
%TO.P,U1,3,OUT*%
%TO.N,/SIG*%
X120750000Y-84460000D03*
%TO.P,U1,4,~{RST}*%
%TO.N,/VCC*%
X120750000Y-87000000D03*
%TO.P,U1,5,CONT*%
%TO.N,unconnected-(U1-CONT-Pad5)*%
X128370000Y-87000000D03*
%TO.P,U1,6,THRES*%
%TO.N,Net-(D1-K)*%
X128370000Y-84460000D03*
%TO.P,U1,7,DISCH*%
%TO.N,Net-(D1-A)*%
X128370000Y-81920000D03*
%TO.P,U1,8,VCC*%
%TO.N,/VCC*%
X128370000Y-79380000D03*
%TD*%
D14*
%TO.P,R3,2*%
%TO.N,Net-(D2-A)*%
X116750000Y-78810000D03*
%TO.P,R3,1*%
%TO.N,/VCC*%
X116750000Y-71190000D03*
%TD*%
%TO.P,R2,1*%
%TO.N,Net-(R2-Pad1)*%
X131440000Y-77500000D03*
%TO.P,R2,2*%
%TO.N,/VCC*%
X139060000Y-77500000D03*
%TD*%
%TO.P,R1,1*%
%TO.N,Net-(D1-A)*%
X120630000Y-90000000D03*
%TO.P,R1,2*%
%TO.N,Net-(D1-K)*%
X128250000Y-90000000D03*
%TD*%
D15*
%TO.P,J2,1,Pin_1*%
%TO.N,GND*%
X136365000Y-80920000D03*
D16*
%TO.P,J2,2,Pin_2*%
%TO.N,/VCC*%
X136365000Y-83460000D03*
%TO.P,J2,3,Pin_3*%
%TO.N,/SIG*%
X136365000Y-86000000D03*
%TD*%
D15*
%TO.P,J1,1,Pin_1*%
%TO.N,/VCC*%
X113635000Y-78275000D03*
D16*
%TO.P,J1,2,Pin_2*%
%TO.N,GND*%
X113635000Y-75735000D03*
%TD*%
D17*
%TO.P,D2,1,K*%
%TO.N,GND*%
X113000000Y-84500000D03*
D18*
%TO.P,D2,2,A*%
%TO.N,Net-(D2-A)*%
X113000000Y-81960000D03*
%TD*%
D19*
%TO.P,D1,1,K*%
%TO.N,Net-(D1-K)*%
X116750000Y-81630000D03*
D13*
%TO.P,D1,2,A*%
%TO.N,Net-(D1-A)*%
X116750000Y-89250000D03*
%TD*%
%TO.P,C1,1*%
%TO.N,Net-(D1-K)*%
X131750000Y-85500000D03*
%TO.P,C1,2*%
%TO.N,GND*%
X131750000Y-80500000D03*
%TD*%
D20*
%TO.N,GND*%
X119500000Y-78130000D02*
X120750000Y-79380000D01*
X119500000Y-70000000D02*
X119500000Y-78130000D01*
X118500000Y-69000000D02*
X119500000Y-70000000D01*
X114250000Y-69000000D02*
X118500000Y-69000000D01*
X113635000Y-75735000D02*
X113635000Y-69615000D01*
X113635000Y-69615000D02*
X114250000Y-69000000D01*
X117500000Y-84500000D02*
X113000000Y-84500000D01*
X118500000Y-83500000D02*
X117500000Y-84500000D01*
X118500000Y-81630000D02*
X118500000Y-83500000D01*
X120750000Y-79380000D02*
X118500000Y-81630000D01*
%TO.N,/VCC*%
X116750000Y-76000000D02*
X114475000Y-78275000D01*
X116750000Y-71190000D02*
X116750000Y-76000000D01*
X114475000Y-78275000D02*
X113635000Y-78275000D01*
X131187760Y-79380000D02*
X128370000Y-79380000D01*
X133067760Y-77500000D02*
X131187760Y-79380000D01*
X139060000Y-77500000D02*
X133067760Y-77500000D01*
%TO.N,Net-(D1-K)*%
X123670000Y-81920000D02*
X120750000Y-81920000D01*
X126210000Y-84460000D02*
X123670000Y-81920000D01*
X128370000Y-84460000D02*
X126210000Y-84460000D01*
%TO.N,/SIG*%
X122210000Y-84460000D02*
X120750000Y-84460000D01*
X126250000Y-88500000D02*
X122210000Y-84460000D01*
X133865000Y-88500000D02*
X126250000Y-88500000D01*
X136365000Y-86000000D02*
X133865000Y-88500000D01*
%TD*%
%TA.AperFunction,Conductor*%
%TO.N,GND*%
G36*
X137445561Y-64770185D02*
G01*
X137491316Y-64822989D01*
X137501260Y-64892147D01*
X137472235Y-64955703D01*
X137454015Y-64972869D01*
X137428149Y-64992718D01*
X137428139Y-64992726D01*
X137242726Y-65178140D01*
X137242718Y-65178148D01*
X137083075Y-65386196D01*
X136951958Y-65613299D01*
X136951953Y-65613309D01*
X136851605Y-65855571D01*
X136851602Y-65855581D01*
X136783730Y-66108885D01*
X136749500Y-66368872D01*
X136749500Y-66631127D01*
X136770436Y-66790140D01*
X136783730Y-66891116D01*
X136851076Y-67142455D01*
X136851602Y-67144418D01*
X136851605Y-67144428D01*
X136951953Y-67386690D01*
X136951958Y-67386700D01*
X137083075Y-67613803D01*
X137242718Y-67821851D01*
X137242726Y-67821860D01*
X137428140Y-68007274D01*
X137428148Y-68007281D01*
X137636196Y-68166924D01*
X137863299Y-68298041D01*
X137863309Y-68298046D01*
X138105571Y-68398394D01*
X138105581Y-68398398D01*
X138358884Y-68466270D01*
X138618880Y-68500500D01*
X138618887Y-68500500D01*
X138881113Y-68500500D01*
X138881120Y-68500500D01*
X139141116Y-68466270D01*
X139394419Y-68398398D01*
X139636697Y-68298043D01*
X139863803Y-68166924D01*
X140071851Y-68007282D01*
X140071855Y-68007277D01*
X140071860Y-68007274D01*
X140257273Y-67821860D01*
X140257282Y-67821851D01*
X140277126Y-67795988D01*
X140333552Y-67754789D01*
X140403298Y-67750634D01*
X140464219Y-67784847D01*
X140496971Y-67846564D01*
X140499500Y-67871478D01*
X140499500Y-77338933D01*
X140479815Y-77405972D01*
X140427011Y-77451727D01*
X140357853Y-77461671D01*
X140294297Y-77432646D01*
X140256523Y-77373868D01*
X140253027Y-77358331D01*
X140230940Y-77218881D01*
X140181738Y-77067455D01*
X140172547Y-77039168D01*
X140172545Y-77039165D01*
X140172545Y-77039163D01*
X140104091Y-76904815D01*
X140086760Y-76870801D01*
X139975690Y-76717927D01*
X139842073Y-76584310D01*
X139689199Y-76473240D01*
X139520836Y-76387454D01*
X139341118Y-76329059D01*
X139154486Y-76299500D01*
X139154481Y-76299500D01*
X138965519Y-76299500D01*
X138965514Y-76299500D01*
X138778881Y-76329059D01*
X138599163Y-76387454D01*
X138430800Y-76473240D01*
X138343579Y-76536610D01*
X138277927Y-76584310D01*
X138277925Y-76584312D01*
X138277924Y-76584312D01*
X138149056Y-76713181D01*
X138087733Y-76746666D01*
X138061375Y-76749500D01*
X132993840Y-76749500D01*
X132848852Y-76778340D01*
X132848842Y-76778343D01*
X132712271Y-76834912D01*
X132712260Y-76834918D01*
X132628571Y-76890837D01*
X132561893Y-76911714D01*
X132494513Y-76893229D01*
X132459363Y-76860620D01*
X132440685Y-76834912D01*
X132355690Y-76717927D01*
X132222073Y-76584310D01*
X132069199Y-76473240D01*
X131900836Y-76387454D01*
X131721118Y-76329059D01*
X131534486Y-76299500D01*
X131534481Y-76299500D01*
X131345519Y-76299500D01*
X131345514Y-76299500D01*
X131158881Y-76329059D01*
X130979163Y-76387454D01*
X130810800Y-76473240D01*
X130723579Y-76536610D01*
X130657927Y-76584310D01*
X130657925Y-76584312D01*
X130657924Y-76584312D01*
X130524312Y-76717924D01*
X130524312Y-76717925D01*
X130524310Y-76717927D01*
X130503430Y-76746666D01*
X130413240Y-76870800D01*
X130327454Y-77039163D01*
X130269059Y-77218881D01*
X130239500Y-77405513D01*
X130239500Y-77594486D01*
X130269059Y-77781118D01*
X130327454Y-77960836D01*
X130387917Y-78079500D01*
X130413240Y-78129199D01*
X130524310Y-78282073D01*
X130524312Y-78282075D01*
X130660056Y-78417819D01*
X130693541Y-78479142D01*
X130688557Y-78548834D01*
X130646685Y-78604767D01*
X130581221Y-78629184D01*
X130572375Y-78629500D01*
X129495418Y-78629500D01*
X129428379Y-78609815D01*
X129395100Y-78578385D01*
X129361971Y-78532787D01*
X129361967Y-78532782D01*
X129217213Y-78388028D01*
X129051613Y-78267715D01*
X129051612Y-78267714D01*
X129051610Y-78267713D01*
X128992675Y-78237684D01*
X128869223Y-78174781D01*
X128674534Y-78111522D01*
X128499995Y-78083878D01*
X128472352Y-78079500D01*
X128267648Y-78079500D01*
X128243329Y-78083351D01*
X128065465Y-78111522D01*
X127870776Y-78174781D01*
X127688386Y-78267715D01*
X127522786Y-78388028D01*
X127378028Y-78532786D01*
X127257715Y-78698386D01*
X127164781Y-78880776D01*
X127101522Y-79075465D01*
X127076653Y-79232486D01*
X127069500Y-79277648D01*
X127069500Y-79482352D01*
X127069531Y-79482546D01*
X127101522Y-79684534D01*
X127164781Y-79879223D01*
X127257715Y-80061613D01*
X127378028Y-80227213D01*
X127522786Y-80371971D01*
X127635795Y-80454075D01*
X127688390Y-80492287D01*
X127779840Y-80538883D01*
X127781080Y-80539515D01*
X127831876Y-80587490D01*
X127848671Y-80655311D01*
X127826134Y-80721446D01*
X127781080Y-80760485D01*
X127688386Y-80807715D01*
X127522786Y-80928028D01*
X127378028Y-81072786D01*
X127257715Y-81238386D01*
X127164781Y-81420776D01*
X127101522Y-81615465D01*
X127069500Y-81817648D01*
X127069500Y-82022351D01*
X127101522Y-82224534D01*
X127164781Y-82419223D01*
X127257715Y-82601613D01*
X127378028Y-82767213D01*
X127522786Y-82911971D01*
X127670721Y-83019450D01*
X127688390Y-83032287D01*
X127779840Y-83078883D01*
X127781080Y-83079515D01*
X127831876Y-83127490D01*
X127848671Y-83195311D01*
X127826134Y-83261446D01*
X127781080Y-83300485D01*
X127688386Y-83347715D01*
X127522786Y-83468028D01*
X127378032Y-83612782D01*
X127378028Y-83612787D01*
X127344900Y-83658385D01*
X127289571Y-83701051D01*
X127244582Y-83709500D01*
X126572229Y-83709500D01*
X126505190Y-83689815D01*
X126484548Y-83673181D01*
X124148421Y-81337052D01*
X124148414Y-81337046D01*
X124074729Y-81287812D01*
X124074729Y-81287813D01*
X124025491Y-81254913D01*
X123888917Y-81198343D01*
X123888907Y-81198340D01*
X123743920Y-81169500D01*
X123743918Y-81169500D01*
X121875418Y-81169500D01*
X121808379Y-81149815D01*
X121775100Y-81118385D01*
X121741971Y-81072787D01*
X121741967Y-81072782D01*
X121597217Y-80928032D01*
X121597212Y-80928028D01*
X121503051Y-80859616D01*
X121460385Y-80804286D01*
X121454406Y-80734673D01*
X121487012Y-80672878D01*
X121536933Y-80641592D01*
X121619117Y-80614359D01*
X121619124Y-80614356D01*
X121768345Y-80522315D01*
X121892315Y-80398345D01*
X121984356Y-80249124D01*
X121984358Y-80249119D01*
X122039505Y-80082697D01*
X122039506Y-80082690D01*
X122049999Y-79979986D01*
X122050000Y-79979973D01*
X122050000Y-79630000D01*
X121065686Y-79630000D01*
X121070080Y-79625606D01*
X121122741Y-79534394D01*
X121150000Y-79432661D01*
X121150000Y-79327339D01*
X121122741Y-79225606D01*
X121070080Y-79134394D01*
X121065686Y-79130000D01*
X122049999Y-79130000D01*
X122049999Y-78780028D01*
X122049998Y-78780013D01*
X122039505Y-78677302D01*
X121984358Y-78510880D01*
X121984356Y-78510875D01*
X121892315Y-78361654D01*
X121768345Y-78237684D01*
X121619124Y-78145643D01*
X121619119Y-78145641D01*
X121452697Y-78090494D01*
X121452690Y-78090493D01*
X121349986Y-78080000D01*
X121000000Y-78080000D01*
X121000000Y-79064314D01*
X120995606Y-79059920D01*
X120904394Y-79007259D01*
X120802661Y-78980000D01*
X120697339Y-78980000D01*
X120595606Y-79007259D01*
X120504394Y-79059920D01*
X120500000Y-79064314D01*
X120500000Y-78080000D01*
X120150028Y-78080000D01*
X120150012Y-78080001D01*
X120047302Y-78090494D01*
X119880880Y-78145641D01*
X119880875Y-78145643D01*
X119731654Y-78237684D01*
X119607684Y-78361654D01*
X119515643Y-78510875D01*
X119515641Y-78510880D01*
X119460494Y-78677302D01*
X119460493Y-78677309D01*
X119450000Y-78780013D01*
X119450000Y-79130000D01*
X120434314Y-79130000D01*
X120429920Y-79134394D01*
X120377259Y-79225606D01*
X120350000Y-79327339D01*
X120350000Y-79432661D01*
X120377259Y-79534394D01*
X120429920Y-79625606D01*
X120434314Y-79630000D01*
X119450001Y-79630000D01*
X119450001Y-79979986D01*
X119460494Y-80082697D01*
X119515641Y-80249119D01*
X119515643Y-80249124D01*
X119607684Y-80398345D01*
X119731654Y-80522315D01*
X119880875Y-80614356D01*
X119880882Y-80614359D01*
X119963067Y-80641592D01*
X120020512Y-80681364D01*
X120047336Y-80745880D01*
X120035021Y-80814656D01*
X119996949Y-80859616D01*
X119902787Y-80928028D01*
X119902782Y-80928032D01*
X119758028Y-81072786D01*
X119637715Y-81238386D01*
X119544781Y-81420776D01*
X119481522Y-81615465D01*
X119449500Y-81817648D01*
X119449500Y-82022351D01*
X119481522Y-82224534D01*
X119544781Y-82419223D01*
X119637715Y-82601613D01*
X119758028Y-82767213D01*
X119902786Y-82911971D01*
X120050721Y-83019450D01*
X120068390Y-83032287D01*
X120159840Y-83078883D01*
X120161080Y-83079515D01*
X120211876Y-83127490D01*
X120228671Y-83195311D01*
X120206134Y-83261446D01*
X120161080Y-83300485D01*
X120068386Y-83347715D01*
X119902786Y-83468028D01*
X119758028Y-83612786D01*
X119637715Y-83778386D01*
X119544781Y-83960776D01*
X119481522Y-84155465D01*
X119449500Y-84357648D01*
X119449500Y-84562351D01*
X119481522Y-84764534D01*
X119544781Y-84959223D01*
X119637715Y-85141613D01*
X119758028Y-85307213D01*
X119902786Y-85451971D01*
X120057749Y-85564556D01*
X120068390Y-85572287D01*
X120127396Y-85602352D01*
X120161080Y-85619515D01*
X120211876Y-85667490D01*
X120228671Y-85735311D01*
X120206134Y-85801446D01*
X120161080Y-85840485D01*
X120068386Y-85887715D01*
X119902786Y-86008028D01*
X119758028Y-86152786D01*
X119637715Y-86318386D01*
X119544781Y-86500776D01*
X119481522Y-86695465D01*
X119449500Y-86897648D01*
X119449500Y-87102351D01*
X119481522Y-87304534D01*
X119544781Y-87499223D01*
X119637715Y-87681613D01*
X119758028Y-87847213D01*
X119902786Y-87991971D01*
X120057749Y-88104556D01*
X120068390Y-88112287D01*
X120184607Y-88171503D01*
X120250776Y-88205218D01*
X120250778Y-88205218D01*
X120250781Y-88205220D01*
X120355137Y-88239127D01*
X120445465Y-88268477D01*
X120541768Y-88283730D01*
X120647648Y-88300500D01*
X120647649Y-88300500D01*
X120852351Y-88300500D01*
X120852352Y-88300500D01*
X121054534Y-88268477D01*
X121249219Y-88205220D01*
X121431610Y-88112287D01*
X121524590Y-88044732D01*
X121597213Y-87991971D01*
X121597215Y-87991968D01*
X121597219Y-87991966D01*
X121741966Y-87847219D01*
X121741968Y-87847215D01*
X121741971Y-87847213D01*
X121827264Y-87729815D01*
X121862287Y-87681610D01*
X121955220Y-87499219D01*
X122018477Y-87304534D01*
X122050500Y-87102352D01*
X122050500Y-86897648D01*
X122018477Y-86695466D01*
X121955220Y-86500781D01*
X121955218Y-86500778D01*
X121955218Y-86500776D01*
X121921503Y-86434607D01*
X121862287Y-86318390D01*
X121822866Y-86264131D01*
X121741971Y-86152786D01*
X121597213Y-86008028D01*
X121431614Y-85887715D01*
X121425006Y-85884348D01*
X121338917Y-85840483D01*
X121288123Y-85792511D01*
X121271328Y-85724690D01*
X121293865Y-85658555D01*
X121338917Y-85619516D01*
X121431610Y-85572287D01*
X121520959Y-85507372D01*
X121597213Y-85451971D01*
X121597215Y-85451968D01*
X121597219Y-85451966D01*
X121741966Y-85307219D01*
X121763464Y-85277629D01*
X121818792Y-85234963D01*
X121888405Y-85228982D01*
X121950201Y-85261587D01*
X121951464Y-85262832D01*
X125771586Y-89082954D01*
X125773616Y-89084310D01*
X125845270Y-89132186D01*
X125894505Y-89165084D01*
X125894506Y-89165084D01*
X125894507Y-89165085D01*
X125894509Y-89165086D01*
X126031082Y-89221656D01*
X126031087Y-89221658D01*
X126031091Y-89221658D01*
X126031092Y-89221659D01*
X126176079Y-89250500D01*
X126176082Y-89250500D01*
X126176083Y-89250500D01*
X126323918Y-89250500D01*
X127082187Y-89250500D01*
X127149226Y-89270185D01*
X127194981Y-89322989D01*
X127204925Y-89392147D01*
X127192672Y-89430795D01*
X127137454Y-89539163D01*
X127079059Y-89718881D01*
X127049500Y-89905513D01*
X127049500Y-90094486D01*
X127079059Y-90281118D01*
X127137454Y-90460836D01*
X127207327Y-90597968D01*
X127223240Y-90629199D01*
X127334310Y-90782073D01*
X127467927Y-90915690D01*
X127620801Y-91026760D01*
X127700347Y-91067290D01*
X127789163Y-91112545D01*
X127789165Y-91112545D01*
X127789168Y-91112547D01*
X127855427Y-91134076D01*
X127968881Y-91170940D01*
X128155514Y-91200500D01*
X128155519Y-91200500D01*
X128344486Y-91200500D01*
X128531118Y-91170940D01*
X128710832Y-91112547D01*
X128879199Y-91026760D01*
X129032073Y-90915690D01*
X129165690Y-90782073D01*
X129276760Y-90629199D01*
X129362547Y-90460832D01*
X129420940Y-90281118D01*
X129446636Y-90118880D01*
X129450500Y-90094486D01*
X129450500Y-89905513D01*
X129420940Y-89718881D01*
X129369791Y-89561462D01*
X129362547Y-89539168D01*
X129362545Y-89539165D01*
X129362545Y-89539163D01*
X129307328Y-89430795D01*
X129294432Y-89362126D01*
X129320708Y-89297385D01*
X129377815Y-89257128D01*
X129417813Y-89250500D01*
X133938920Y-89250500D01*
X134036462Y-89231096D01*
X134083913Y-89221658D01*
X134220495Y-89165084D01*
X134269729Y-89132186D01*
X134269734Y-89132183D01*
X134294071Y-89115921D01*
X134343416Y-89082952D01*
X136056194Y-87370172D01*
X136117515Y-87336689D01*
X136163265Y-87335382D01*
X136258713Y-87350500D01*
X136258715Y-87350500D01*
X136471286Y-87350500D01*
X136471287Y-87350500D01*
X136681243Y-87317246D01*
X136883412Y-87251557D01*
X137072816Y-87155051D01*
X137094789Y-87139086D01*
X137244786Y-87030109D01*
X137244788Y-87030106D01*
X137244792Y-87030104D01*
X137395104Y-86879792D01*
X137395106Y-86879788D01*
X137395109Y-86879786D01*
X137520048Y-86707820D01*
X137520047Y-86707820D01*
X137520051Y-86707816D01*
X137616557Y-86518412D01*
X137682246Y-86316243D01*
X137715500Y-86106287D01*
X137715500Y-85893713D01*
X137682246Y-85683757D01*
X137616557Y-85481588D01*
X137520051Y-85292184D01*
X137520049Y-85292181D01*
X137520048Y-85292179D01*
X137395109Y-85120213D01*
X137244786Y-84969890D01*
X137072820Y-84844951D01*
X137072115Y-84844591D01*
X137064054Y-84840485D01*
X137013259Y-84792512D01*
X136996463Y-84724692D01*
X137018999Y-84658556D01*
X137064054Y-84619515D01*
X137072816Y-84615051D01*
X137094789Y-84599086D01*
X137244786Y-84490109D01*
X137244788Y-84490106D01*
X137244792Y-84490104D01*
X137395104Y-84339792D01*
X137395106Y-84339788D01*
X137395109Y-84339786D01*
X137520048Y-84167820D01*
X137520047Y-84167820D01*
X137520051Y-84167816D01*
X137616557Y-83978412D01*
X137682246Y-83776243D01*
X137715500Y-83566287D01*
X137715500Y-83353713D01*
X137682246Y-83143757D01*
X137616557Y-82941588D01*
X137520051Y-82752184D01*
X137520049Y-82752181D01*
X137520048Y-82752179D01*
X137395109Y-82580213D01*
X137281181Y-82466285D01*
X137247696Y-82404962D01*
X137252680Y-82335270D01*
X137294552Y-82279337D01*
X137325529Y-82262422D01*
X137457086Y-82213354D01*
X137457093Y-82213350D01*
X137572187Y-82127190D01*
X137572190Y-82127187D01*
X137658350Y-82012093D01*
X137658354Y-82012086D01*
X137708596Y-81877379D01*
X137708598Y-81877372D01*
X137714999Y-81817844D01*
X137715000Y-81817827D01*
X137715000Y-81170000D01*
X136798012Y-81170000D01*
X136830925Y-81112993D01*
X136865000Y-80985826D01*
X136865000Y-80854174D01*
X136830925Y-80727007D01*
X136798012Y-80670000D01*
X137715000Y-80670000D01*
X137715000Y-80022172D01*
X137714999Y-80022155D01*
X137708598Y-79962627D01*
X137708596Y-79962620D01*
X137658354Y-79827913D01*
X137658350Y-79827906D01*
X137572190Y-79712812D01*
X137572187Y-79712809D01*
X137457093Y-79626649D01*
X137457086Y-79626645D01*
X137322379Y-79576403D01*
X137322372Y-79576401D01*
X137262844Y-79570000D01*
X136615000Y-79570000D01*
X136615000Y-80486988D01*
X136557993Y-80454075D01*
X136430826Y-80420000D01*
X136299174Y-80420000D01*
X136172007Y-80454075D01*
X136115000Y-80486988D01*
X136115000Y-79570000D01*
X135467155Y-79570000D01*
X135407627Y-79576401D01*
X135407620Y-79576403D01*
X135272913Y-79626645D01*
X135272906Y-79626649D01*
X135157812Y-79712809D01*
X135157809Y-79712812D01*
X135071649Y-79827906D01*
X135071645Y-79827913D01*
X135021403Y-79962620D01*
X135021401Y-79962627D01*
X135015000Y-80022155D01*
X135015000Y-80670000D01*
X135931988Y-80670000D01*
X135899075Y-80727007D01*
X135865000Y-80854174D01*
X135865000Y-80985826D01*
X135899075Y-81112993D01*
X135931988Y-81170000D01*
X135015000Y-81170000D01*
X135015000Y-81817844D01*
X135021401Y-81877372D01*
X135021403Y-81877379D01*
X135071645Y-82012086D01*
X135071649Y-82012093D01*
X135157809Y-82127187D01*
X135157812Y-82127190D01*
X135272906Y-82213350D01*
X135272913Y-82213354D01*
X135404470Y-82262422D01*
X135460404Y-82304293D01*
X135484821Y-82369758D01*
X135469969Y-82438031D01*
X135448819Y-82466285D01*
X135334889Y-82580215D01*
X135209951Y-82752179D01*
X135113444Y-82941585D01*
X135047753Y-83143760D01*
X135014500Y-83353713D01*
X135014500Y-83566286D01*
X135041750Y-83738340D01*
X135047754Y-83776243D01*
X135107714Y-83960781D01*
X135113444Y-83978414D01*
X135209951Y-84167820D01*
X135334890Y-84339786D01*
X135485213Y-84490109D01*
X135657182Y-84615050D01*
X135665946Y-84619516D01*
X135716742Y-84667491D01*
X135733536Y-84735312D01*
X135710998Y-84801447D01*
X135665946Y-84840484D01*
X135657182Y-84844949D01*
X135485213Y-84969890D01*
X135334890Y-85120213D01*
X135209951Y-85292179D01*
X135113444Y-85481585D01*
X135047753Y-85683760D01*
X135014500Y-85893713D01*
X135014500Y-86106292D01*
X135029616Y-86201728D01*
X135020662Y-86271021D01*
X134994824Y-86308807D01*
X133590451Y-87713181D01*
X133529128Y-87746666D01*
X133502770Y-87749500D01*
X129650045Y-87749500D01*
X129583006Y-87729815D01*
X129537251Y-87677011D01*
X129527307Y-87607853D01*
X129539560Y-87569205D01*
X129575218Y-87499223D01*
X129575218Y-87499222D01*
X129575220Y-87499219D01*
X129638477Y-87304534D01*
X129670500Y-87102352D01*
X129670500Y-86897648D01*
X129638477Y-86695466D01*
X129575220Y-86500781D01*
X129575218Y-86500778D01*
X129575218Y-86500776D01*
X129541503Y-86434607D01*
X129482287Y-86318390D01*
X129442866Y-86264131D01*
X129361971Y-86152786D01*
X129217213Y-86008028D01*
X129051614Y-85887715D01*
X129045006Y-85884348D01*
X128958917Y-85840483D01*
X128908123Y-85792511D01*
X128891328Y-85724690D01*
X128913865Y-85658555D01*
X128958917Y-85619516D01*
X129051610Y-85572287D01*
X129140959Y-85507372D01*
X129217213Y-85451971D01*
X129217215Y-85451968D01*
X129217219Y-85451966D01*
X129271537Y-85397648D01*
X130449500Y-85397648D01*
X130449500Y-85602351D01*
X130481522Y-85804534D01*
X130544781Y-85999223D01*
X130608691Y-86124653D01*
X130623026Y-86152786D01*
X130637715Y-86181613D01*
X130758028Y-86347213D01*
X130902786Y-86491971D01*
X131057749Y-86604556D01*
X131068390Y-86612287D01*
X131184607Y-86671503D01*
X131250776Y-86705218D01*
X131250778Y-86705218D01*
X131250781Y-86705220D01*
X131355137Y-86739127D01*
X131445465Y-86768477D01*
X131546557Y-86784488D01*
X131647648Y-86800500D01*
X131647649Y-86800500D01*
X131852351Y-86800500D01*
X131852352Y-86800500D01*
X132054534Y-86768477D01*
X132249219Y-86705220D01*
X132431610Y-86612287D01*
X132524590Y-86544732D01*
X132597213Y-86491971D01*
X132597215Y-86491968D01*
X132597219Y-86491966D01*
X132741966Y-86347219D01*
X132741968Y-86347215D01*
X132741971Y-86347213D01*
X132802332Y-86264131D01*
X132862287Y-86181610D01*
X132955220Y-85999219D01*
X133018477Y-85804534D01*
X133050500Y-85602352D01*
X133050500Y-85397648D01*
X133023976Y-85230185D01*
X133018477Y-85195465D01*
X132955218Y-85000776D01*
X132883534Y-84860090D01*
X132862287Y-84818390D01*
X132843486Y-84792512D01*
X132741971Y-84652786D01*
X132597213Y-84508028D01*
X132431613Y-84387715D01*
X132431612Y-84387714D01*
X132431610Y-84387713D01*
X132337560Y-84339792D01*
X132249223Y-84294781D01*
X132054534Y-84231522D01*
X131879995Y-84203878D01*
X131852352Y-84199500D01*
X131647648Y-84199500D01*
X131623329Y-84203351D01*
X131445465Y-84231522D01*
X131250776Y-84294781D01*
X131068386Y-84387715D01*
X130902786Y-84508028D01*
X130758028Y-84652786D01*
X130637715Y-84818386D01*
X130544781Y-85000776D01*
X130481522Y-85195465D01*
X130449500Y-85397648D01*
X129271537Y-85397648D01*
X129361966Y-85307219D01*
X129361968Y-85307215D01*
X129361971Y-85307213D01*
X129432236Y-85210500D01*
X129482287Y-85141610D01*
X129575220Y-84959219D01*
X129638477Y-84764534D01*
X129670500Y-84562352D01*
X129670500Y-84357648D01*
X129653450Y-84250000D01*
X129638477Y-84155465D01*
X129580949Y-83978414D01*
X129575220Y-83960781D01*
X129575218Y-83960778D01*
X129575218Y-83960776D01*
X129507469Y-83827813D01*
X129482287Y-83778390D01*
X129474556Y-83767749D01*
X129361971Y-83612786D01*
X129217213Y-83468028D01*
X129051614Y-83347715D01*
X129009025Y-83326015D01*
X128958917Y-83300483D01*
X128908123Y-83252511D01*
X128891328Y-83184690D01*
X128913865Y-83118555D01*
X128958917Y-83079516D01*
X129051610Y-83032287D01*
X129072770Y-83016913D01*
X129217213Y-82911971D01*
X129217215Y-82911968D01*
X129217219Y-82911966D01*
X129361966Y-82767219D01*
X129361968Y-82767215D01*
X129361971Y-82767213D01*
X129432236Y-82670500D01*
X129482287Y-82601610D01*
X129575220Y-82419219D01*
X129638477Y-82224534D01*
X129670500Y-82022352D01*
X129670500Y-81817648D01*
X129638477Y-81615466D01*
X129638476Y-81615462D01*
X129638476Y-81615461D01*
X129623878Y-81570533D01*
X129593592Y-81477324D01*
X129575220Y-81420781D01*
X129575218Y-81420778D01*
X129575218Y-81420776D01*
X129507469Y-81287813D01*
X129482287Y-81238390D01*
X129473228Y-81225921D01*
X129361971Y-81072786D01*
X129217213Y-80928028D01*
X129051614Y-80807715D01*
X129044884Y-80804286D01*
X128958917Y-80760483D01*
X128908123Y-80712511D01*
X128891328Y-80644690D01*
X128913865Y-80578555D01*
X128958917Y-80539516D01*
X129051610Y-80492287D01*
X129113476Y-80447339D01*
X129217213Y-80371971D01*
X129217215Y-80371968D01*
X129217219Y-80371966D01*
X129361966Y-80227219D01*
X129379570Y-80202989D01*
X129395100Y-80181615D01*
X129450429Y-80138949D01*
X129495418Y-80130500D01*
X130347133Y-80130500D01*
X130414172Y-80150185D01*
X130459927Y-80202989D01*
X130469871Y-80272147D01*
X130469606Y-80273898D01*
X130450000Y-80397682D01*
X130450000Y-80602317D01*
X130482009Y-80804417D01*
X130545244Y-80999031D01*
X130638141Y-81181350D01*
X130638147Y-81181359D01*
X130670523Y-81225921D01*
X130670524Y-81225922D01*
X131350000Y-80546446D01*
X131350000Y-80552661D01*
X131377259Y-80654394D01*
X131429920Y-80745606D01*
X131504394Y-80820080D01*
X131595606Y-80872741D01*
X131697339Y-80900000D01*
X131703553Y-80900000D01*
X131024076Y-81579474D01*
X131068650Y-81611859D01*
X131250968Y-81704755D01*
X131445582Y-81767990D01*
X131647683Y-81800000D01*
X131852317Y-81800000D01*
X132054417Y-81767990D01*
X132249031Y-81704755D01*
X132431349Y-81611859D01*
X132475921Y-81579474D01*
X131796447Y-80900000D01*
X131802661Y-80900000D01*
X131904394Y-80872741D01*
X131995606Y-80820080D01*
X132070080Y-80745606D01*
X132122741Y-80654394D01*
X132150000Y-80552661D01*
X132150000Y-80546448D01*
X132829474Y-81225922D01*
X132829474Y-81225921D01*
X132861859Y-81181349D01*
X132954755Y-80999031D01*
X133017990Y-80804417D01*
X133050000Y-80602317D01*
X133050000Y-80397682D01*
X133017990Y-80195582D01*
X132973016Y-80057170D01*
X132973015Y-80057168D01*
X132954755Y-80000970D01*
X132861859Y-79818650D01*
X132829474Y-79774077D01*
X132829474Y-79774076D01*
X132150000Y-80453551D01*
X132150000Y-80447339D01*
X132122741Y-80345606D01*
X132070080Y-80254394D01*
X131995606Y-80179920D01*
X131904394Y-80127259D01*
X131802661Y-80100000D01*
X131796446Y-80100000D01*
X132475922Y-79420524D01*
X132475921Y-79420523D01*
X132438550Y-79393371D01*
X132395884Y-79338042D01*
X132389905Y-79268428D01*
X132422510Y-79206633D01*
X132423640Y-79205487D01*
X133342308Y-78286818D01*
X133403631Y-78253334D01*
X133429989Y-78250500D01*
X138061375Y-78250500D01*
X138128414Y-78270185D01*
X138149056Y-78286819D01*
X138277927Y-78415690D01*
X138430801Y-78526760D01*
X138474124Y-78548834D01*
X138599163Y-78612545D01*
X138599165Y-78612545D01*
X138599168Y-78612547D01*
X138651344Y-78629500D01*
X138778881Y-78670940D01*
X138965514Y-78700500D01*
X138965519Y-78700500D01*
X139154486Y-78700500D01*
X139341118Y-78670940D01*
X139520832Y-78612547D01*
X139689199Y-78526760D01*
X139842073Y-78415690D01*
X139975690Y-78282073D01*
X140086760Y-78129199D01*
X140172547Y-77960832D01*
X140230940Y-77781118D01*
X140244191Y-77697453D01*
X140253027Y-77641668D01*
X140282956Y-77578533D01*
X140342268Y-77541602D01*
X140412130Y-77542600D01*
X140470363Y-77581210D01*
X140498477Y-77645174D01*
X140499500Y-77661066D01*
X140499500Y-89499462D01*
X140479815Y-89566501D01*
X140427011Y-89612256D01*
X140357853Y-89622200D01*
X140294297Y-89593175D01*
X140268113Y-89561462D01*
X140166924Y-89386196D01*
X140007281Y-89178148D01*
X140007274Y-89178140D01*
X139821860Y-88992726D01*
X139821851Y-88992718D01*
X139613803Y-88833075D01*
X139386700Y-88701958D01*
X139386690Y-88701953D01*
X139144428Y-88601605D01*
X139144421Y-88601603D01*
X139144419Y-88601602D01*
X138891116Y-88533730D01*
X138833339Y-88526123D01*
X138631127Y-88499500D01*
X138631120Y-88499500D01*
X138368880Y-88499500D01*
X138368872Y-88499500D01*
X138137772Y-88529926D01*
X138108884Y-88533730D01*
X137855581Y-88601602D01*
X137855571Y-88601605D01*
X137613309Y-88701953D01*
X137613299Y-88701958D01*
X137386196Y-88833075D01*
X137178148Y-88992718D01*
X136992718Y-89178148D01*
X136833075Y-89386196D01*
X136701958Y-89613299D01*
X136701953Y-89613309D01*
X136601605Y-89855571D01*
X136601602Y-89855581D01*
X136537590Y-90094481D01*
X136533730Y-90108885D01*
X136499500Y-90368872D01*
X136499500Y-90631127D01*
X136511354Y-90721161D01*
X136533730Y-90891116D01*
X136593062Y-91112547D01*
X136601602Y-91144418D01*
X136601605Y-91144428D01*
X136701953Y-91386690D01*
X136701958Y-91386700D01*
X136833075Y-91613803D01*
X136992718Y-91821851D01*
X136992726Y-91821860D01*
X137178139Y-92007273D01*
X137178143Y-92007276D01*
X137178149Y-92007282D01*
X137204011Y-92027126D01*
X137245211Y-92083552D01*
X137249366Y-92153298D01*
X137215153Y-92214219D01*
X137153436Y-92246971D01*
X137128522Y-92249500D01*
X112500538Y-92249500D01*
X112433499Y-92229815D01*
X112387744Y-92177011D01*
X112377800Y-92107853D01*
X112406825Y-92044297D01*
X112438538Y-92018113D01*
X112613803Y-91916924D01*
X112821851Y-91757282D01*
X112821855Y-91757277D01*
X112821860Y-91757274D01*
X113007274Y-91571860D01*
X113007277Y-91571855D01*
X113007282Y-91571851D01*
X113166924Y-91363803D01*
X113298043Y-91136697D01*
X113398398Y-90894419D01*
X113466270Y-90641116D01*
X113500500Y-90381120D01*
X113500500Y-90118880D01*
X113466270Y-89858884D01*
X113398398Y-89605581D01*
X113345294Y-89477376D01*
X113298046Y-89363309D01*
X113298041Y-89363299D01*
X113206518Y-89204776D01*
X113206517Y-89204774D01*
X113173536Y-89147648D01*
X115449500Y-89147648D01*
X115449500Y-89352352D01*
X115452061Y-89368520D01*
X115481522Y-89554534D01*
X115544781Y-89749223D01*
X115637715Y-89931613D01*
X115758028Y-90097213D01*
X115902786Y-90241971D01*
X116048681Y-90347968D01*
X116068390Y-90362287D01*
X116146394Y-90402032D01*
X116250776Y-90455218D01*
X116250778Y-90455218D01*
X116250781Y-90455220D01*
X116355137Y-90489127D01*
X116445465Y-90518477D01*
X116546557Y-90534488D01*
X116647648Y-90550500D01*
X116647649Y-90550500D01*
X116852351Y-90550500D01*
X116852352Y-90550500D01*
X117054534Y-90518477D01*
X117249219Y-90455220D01*
X117431610Y-90362287D01*
X117524590Y-90294732D01*
X117597213Y-90241971D01*
X117597215Y-90241968D01*
X117597219Y-90241966D01*
X117741966Y-90097219D01*
X117741968Y-90097215D01*
X117741971Y-90097213D01*
X117862284Y-89931614D01*
X117862285Y-89931613D01*
X117862287Y-89931610D01*
X117875584Y-89905513D01*
X119429500Y-89905513D01*
X119429500Y-90094486D01*
X119459059Y-90281118D01*
X119517454Y-90460836D01*
X119587327Y-90597968D01*
X119603240Y-90629199D01*
X119714310Y-90782073D01*
X119847927Y-90915690D01*
X120000801Y-91026760D01*
X120080347Y-91067290D01*
X120169163Y-91112545D01*
X120169165Y-91112545D01*
X120169168Y-91112547D01*
X120235427Y-91134076D01*
X120348881Y-91170940D01*
X120535514Y-91200500D01*
X120535519Y-91200500D01*
X120724486Y-91200500D01*
X120911118Y-91170940D01*
X121090832Y-91112547D01*
X121259199Y-91026760D01*
X121412073Y-90915690D01*
X121545690Y-90782073D01*
X121656760Y-90629199D01*
X121742547Y-90460832D01*
X121800940Y-90281118D01*
X121826636Y-90118880D01*
X121830500Y-90094486D01*
X121830500Y-89905513D01*
X121800940Y-89718881D01*
X121749791Y-89561462D01*
X121742547Y-89539168D01*
X121742545Y-89539165D01*
X121742545Y-89539163D01*
X121667636Y-89392147D01*
X121656760Y-89370801D01*
X121545690Y-89217927D01*
X121412073Y-89084310D01*
X121259199Y-88973240D01*
X121090836Y-88887454D01*
X120911118Y-88829059D01*
X120724486Y-88799500D01*
X120724481Y-88799500D01*
X120535519Y-88799500D01*
X120535514Y-88799500D01*
X120348881Y-88829059D01*
X120169163Y-88887454D01*
X120000800Y-88973240D01*
X119913579Y-89036610D01*
X119847927Y-89084310D01*
X119847925Y-89084312D01*
X119847924Y-89084312D01*
X119714312Y-89217924D01*
X119714312Y-89217925D01*
X119714310Y-89217927D01*
X119685829Y-89257128D01*
X119603240Y-89370800D01*
X119517454Y-89539163D01*
X119459059Y-89718881D01*
X119429500Y-89905513D01*
X117875584Y-89905513D01*
X117955220Y-89749219D01*
X118018477Y-89554534D01*
X118050500Y-89352352D01*
X118050500Y-89147648D01*
X118048686Y-89136197D01*
X118018477Y-88945465D01*
X117955218Y-88750776D01*
X117921503Y-88684607D01*
X117862287Y-88568390D01*
X117812236Y-88499500D01*
X117741971Y-88402786D01*
X117597213Y-88258028D01*
X117431613Y-88137715D01*
X117431612Y-88137714D01*
X117431610Y-88137713D01*
X117374653Y-88108691D01*
X117249223Y-88044781D01*
X117054534Y-87981522D01*
X116879995Y-87953878D01*
X116852352Y-87949500D01*
X116647648Y-87949500D01*
X116623329Y-87953351D01*
X116445465Y-87981522D01*
X116250776Y-88044781D01*
X116068386Y-88137715D01*
X115902786Y-88258028D01*
X115758028Y-88402786D01*
X115637715Y-88568386D01*
X115544781Y-88750776D01*
X115481522Y-88945465D01*
X115451314Y-89136197D01*
X115449500Y-89147648D01*
X113173536Y-89147648D01*
X113166927Y-89136201D01*
X113166925Y-89136197D01*
X113020569Y-88945465D01*
X113007282Y-88928149D01*
X113007281Y-88928148D01*
X113007274Y-88928140D01*
X112821860Y-88742726D01*
X112821851Y-88742718D01*
X112613803Y-88583075D01*
X112386700Y-88451958D01*
X112386690Y-88451953D01*
X112144428Y-88351605D01*
X112144421Y-88351603D01*
X112144419Y-88351602D01*
X111891116Y-88283730D01*
X111833339Y-88276123D01*
X111631127Y-88249500D01*
X111631120Y-88249500D01*
X111368880Y-88249500D01*
X111368872Y-88249500D01*
X111137772Y-88279926D01*
X111108884Y-88283730D01*
X110855581Y-88351602D01*
X110855571Y-88351605D01*
X110613309Y-88451953D01*
X110613299Y-88451958D01*
X110386196Y-88583075D01*
X110178148Y-88742718D01*
X109992726Y-88928140D01*
X109992716Y-88928151D01*
X109972874Y-88954009D01*
X109916446Y-88995211D01*
X109846700Y-88999364D01*
X109785780Y-88965151D01*
X109753028Y-88903433D01*
X109750500Y-88878521D01*
X109750500Y-81849778D01*
X111599500Y-81849778D01*
X111599500Y-82070221D01*
X111633985Y-82287952D01*
X111702103Y-82497603D01*
X111702104Y-82497606D01*
X111802187Y-82694025D01*
X111931752Y-82872358D01*
X111931756Y-82872363D01*
X111982316Y-82922923D01*
X112015801Y-82984246D01*
X112010817Y-83053938D01*
X111968945Y-83109871D01*
X111937969Y-83126785D01*
X111857918Y-83156643D01*
X111857906Y-83156649D01*
X111742812Y-83242809D01*
X111742809Y-83242812D01*
X111656649Y-83357906D01*
X111656645Y-83357913D01*
X111606403Y-83492620D01*
X111606401Y-83492627D01*
X111600000Y-83552155D01*
X111600000Y-84250000D01*
X112624722Y-84250000D01*
X112580667Y-84326306D01*
X112550000Y-84440756D01*
X112550000Y-84559244D01*
X112580667Y-84673694D01*
X112624722Y-84750000D01*
X111600000Y-84750000D01*
X111600000Y-85447844D01*
X111606401Y-85507372D01*
X111606403Y-85507379D01*
X111656645Y-85642086D01*
X111656649Y-85642093D01*
X111742809Y-85757187D01*
X111742812Y-85757190D01*
X111857906Y-85843350D01*
X111857913Y-85843354D01*
X111992620Y-85893596D01*
X111992627Y-85893598D01*
X112052155Y-85899999D01*
X112052172Y-85900000D01*
X112750000Y-85900000D01*
X112750000Y-84875277D01*
X112826306Y-84919333D01*
X112940756Y-84950000D01*
X113059244Y-84950000D01*
X113173694Y-84919333D01*
X113250000Y-84875277D01*
X113250000Y-85900000D01*
X113947828Y-85900000D01*
X113947844Y-85899999D01*
X114007372Y-85893598D01*
X114007379Y-85893596D01*
X114142086Y-85843354D01*
X114142093Y-85843350D01*
X114257187Y-85757190D01*
X114257190Y-85757187D01*
X114343350Y-85642093D01*
X114343354Y-85642086D01*
X114393596Y-85507379D01*
X114393598Y-85507372D01*
X114399999Y-85447844D01*
X114400000Y-85447827D01*
X114400000Y-84750000D01*
X113375278Y-84750000D01*
X113419333Y-84673694D01*
X113450000Y-84559244D01*
X113450000Y-84440756D01*
X113419333Y-84326306D01*
X113375278Y-84250000D01*
X114400000Y-84250000D01*
X114400000Y-83552172D01*
X114399999Y-83552155D01*
X114393598Y-83492627D01*
X114393596Y-83492620D01*
X114343354Y-83357913D01*
X114343350Y-83357906D01*
X114257190Y-83242812D01*
X114257187Y-83242809D01*
X114142093Y-83156649D01*
X114142087Y-83156646D01*
X114062030Y-83126786D01*
X114006097Y-83084914D01*
X113981680Y-83019450D01*
X113996532Y-82951177D01*
X114017681Y-82922925D01*
X114068242Y-82872365D01*
X114197815Y-82694022D01*
X114297895Y-82497606D01*
X114366015Y-82287951D01*
X114400500Y-82070222D01*
X114400500Y-81849778D01*
X114366015Y-81632049D01*
X114297895Y-81422394D01*
X114297895Y-81422393D01*
X114263237Y-81354375D01*
X114197815Y-81225978D01*
X114177737Y-81198343D01*
X114106084Y-81099719D01*
X114068247Y-81047641D01*
X114068243Y-81047636D01*
X114050590Y-81029983D01*
X115449500Y-81029983D01*
X115449500Y-82230001D01*
X115449501Y-82230018D01*
X115460000Y-82332796D01*
X115460001Y-82332799D01*
X115514612Y-82497603D01*
X115515186Y-82499334D01*
X115607288Y-82648656D01*
X115731344Y-82772712D01*
X115880666Y-82864814D01*
X116047203Y-82919999D01*
X116149991Y-82930500D01*
X117350008Y-82930499D01*
X117452797Y-82919999D01*
X117619334Y-82864814D01*
X117768656Y-82772712D01*
X117892712Y-82648656D01*
X117984814Y-82499334D01*
X118039999Y-82332797D01*
X118050500Y-82230009D01*
X118050499Y-81029992D01*
X118039999Y-80927203D01*
X117984814Y-80760666D01*
X117892712Y-80611344D01*
X117768656Y-80487288D01*
X117619334Y-80395186D01*
X117452797Y-80340001D01*
X117452795Y-80340000D01*
X117350010Y-80329500D01*
X116149998Y-80329500D01*
X116149981Y-80329501D01*
X116047203Y-80340000D01*
X116047200Y-80340001D01*
X115880668Y-80395185D01*
X115880663Y-80395187D01*
X115731342Y-80487289D01*
X115607289Y-80611342D01*
X115515187Y-80760663D01*
X115515185Y-80760668D01*
X115514682Y-80762187D01*
X115460001Y-80927203D01*
X115460001Y-80927204D01*
X115460000Y-80927204D01*
X115449500Y-81029983D01*
X114050590Y-81029983D01*
X113912363Y-80891756D01*
X113912358Y-80891752D01*
X113734025Y-80762187D01*
X113734024Y-80762186D01*
X113734022Y-80762185D01*
X113654068Y-80721446D01*
X113537606Y-80662104D01*
X113537603Y-80662103D01*
X113327952Y-80593985D01*
X113219086Y-80576742D01*
X113110222Y-80559500D01*
X112889778Y-80559500D01*
X112817201Y-80570995D01*
X112672047Y-80593985D01*
X112462396Y-80662103D01*
X112462393Y-80662104D01*
X112265974Y-80762187D01*
X112087641Y-80891752D01*
X112087636Y-80891756D01*
X111931756Y-81047636D01*
X111931752Y-81047641D01*
X111802187Y-81225974D01*
X111702104Y-81422393D01*
X111702103Y-81422396D01*
X111633985Y-81632047D01*
X111599500Y-81849778D01*
X109750500Y-81849778D01*
X109750500Y-77377135D01*
X112284500Y-77377135D01*
X112284500Y-79172870D01*
X112284501Y-79172876D01*
X112290908Y-79232483D01*
X112341202Y-79367328D01*
X112341206Y-79367335D01*
X112427452Y-79482544D01*
X112427455Y-79482547D01*
X112542664Y-79568793D01*
X112542671Y-79568797D01*
X112677517Y-79619091D01*
X112677516Y-79619091D01*
X112684444Y-79619835D01*
X112737127Y-79625500D01*
X114532872Y-79625499D01*
X114592483Y-79619091D01*
X114727331Y-79568796D01*
X114842546Y-79482546D01*
X114928796Y-79367331D01*
X114979091Y-79232483D01*
X114985500Y-79172873D01*
X114985499Y-78877228D01*
X115005183Y-78810190D01*
X115021813Y-78789553D01*
X115365018Y-78446348D01*
X115426341Y-78412864D01*
X115496033Y-78417848D01*
X115551966Y-78459720D01*
X115576383Y-78525184D01*
X115575172Y-78553428D01*
X115549500Y-78715513D01*
X115549500Y-78904486D01*
X115579059Y-79091118D01*
X115637454Y-79270836D01*
X115713724Y-79420523D01*
X115723240Y-79439199D01*
X115834310Y-79592073D01*
X115967927Y-79725690D01*
X116120801Y-79836760D01*
X116200347Y-79877290D01*
X116289163Y-79922545D01*
X116289165Y-79922545D01*
X116289168Y-79922547D01*
X116385497Y-79953846D01*
X116468881Y-79980940D01*
X116655514Y-80010500D01*
X116655519Y-80010500D01*
X116844486Y-80010500D01*
X117031118Y-79980940D01*
X117034094Y-79979973D01*
X117210832Y-79922547D01*
X117379199Y-79836760D01*
X117532073Y-79725690D01*
X117665690Y-79592073D01*
X117776760Y-79439199D01*
X117862547Y-79270832D01*
X117920940Y-79091118D01*
X117934222Y-79007259D01*
X117950500Y-78904486D01*
X117950500Y-78715513D01*
X117920940Y-78528881D01*
X117862545Y-78349163D01*
X117776759Y-78180800D01*
X117751216Y-78145643D01*
X117665690Y-78027927D01*
X117532073Y-77894310D01*
X117379199Y-77783240D01*
X117375034Y-77781118D01*
X117210836Y-77697454D01*
X117031118Y-77639059D01*
X116844486Y-77609500D01*
X116844481Y-77609500D01*
X116655519Y-77609500D01*
X116655514Y-77609500D01*
X116493428Y-77635172D01*
X116424135Y-77626217D01*
X116370683Y-77581221D01*
X116350043Y-77514470D01*
X116368768Y-77447156D01*
X116386346Y-77425020D01*
X117332952Y-76478416D01*
X117393730Y-76387453D01*
X117415084Y-76355495D01*
X117471658Y-76218913D01*
X117500500Y-76073918D01*
X117500500Y-72188625D01*
X117520185Y-72121586D01*
X117536819Y-72100944D01*
X117665690Y-71972073D01*
X117776760Y-71819199D01*
X117862547Y-71650832D01*
X117920940Y-71471118D01*
X117950500Y-71284486D01*
X117950500Y-71095513D01*
X117920940Y-70908881D01*
X117862545Y-70729163D01*
X117817290Y-70640347D01*
X117776760Y-70560801D01*
X117665690Y-70407927D01*
X117532073Y-70274310D01*
X117379199Y-70163240D01*
X117210836Y-70077454D01*
X117031118Y-70019059D01*
X116844486Y-69989500D01*
X116844481Y-69989500D01*
X116655519Y-69989500D01*
X116655514Y-69989500D01*
X116468881Y-70019059D01*
X116289163Y-70077454D01*
X116120800Y-70163240D01*
X116033579Y-70226610D01*
X115967927Y-70274310D01*
X115967925Y-70274312D01*
X115967924Y-70274312D01*
X115834312Y-70407924D01*
X115834312Y-70407925D01*
X115834310Y-70407927D01*
X115786610Y-70473579D01*
X115723240Y-70560800D01*
X115637454Y-70729163D01*
X115579059Y-70908881D01*
X115549500Y-71095513D01*
X115549500Y-71284486D01*
X115579059Y-71471118D01*
X115637454Y-71650836D01*
X115723240Y-71819199D01*
X115834310Y-71972073D01*
X115834312Y-71972075D01*
X115963181Y-72100944D01*
X115996666Y-72162267D01*
X115999500Y-72188625D01*
X115999500Y-75637769D01*
X115979815Y-75704808D01*
X115963181Y-75725450D01*
X114769183Y-76919447D01*
X114707860Y-76952932D01*
X114657605Y-76953441D01*
X114647654Y-76951486D01*
X114592483Y-76930909D01*
X114532873Y-76924500D01*
X114510249Y-76924500D01*
X114498412Y-76922175D01*
X114477684Y-76911396D01*
X114455270Y-76904815D01*
X114437518Y-76890510D01*
X114436422Y-76889940D01*
X114436088Y-76889358D01*
X114434628Y-76888181D01*
X113764408Y-76217962D01*
X113827993Y-76200925D01*
X113942007Y-76135099D01*
X114035099Y-76042007D01*
X114100925Y-75927993D01*
X114117962Y-75864408D01*
X114750270Y-76496717D01*
X114750270Y-76496716D01*
X114789622Y-76442554D01*
X114886095Y-76253217D01*
X114951757Y-76051130D01*
X114951757Y-76051127D01*
X114985000Y-75841246D01*
X114985000Y-75628753D01*
X114951757Y-75418872D01*
X114951757Y-75418869D01*
X114886095Y-75216782D01*
X114789624Y-75027449D01*
X114750270Y-74973282D01*
X114750269Y-74973282D01*
X114117962Y-75605590D01*
X114100925Y-75542007D01*
X114035099Y-75427993D01*
X113942007Y-75334901D01*
X113827993Y-75269075D01*
X113764409Y-75252037D01*
X114396716Y-74619728D01*
X114342550Y-74580375D01*
X114153217Y-74483904D01*
X113951129Y-74418242D01*
X113741246Y-74385000D01*
X113528754Y-74385000D01*
X113318872Y-74418242D01*
X113318869Y-74418242D01*
X113116782Y-74483904D01*
X112927439Y-74580380D01*
X112873282Y-74619727D01*
X112873282Y-74619728D01*
X113505591Y-75252037D01*
X113442007Y-75269075D01*
X113327993Y-75334901D01*
X113234901Y-75427993D01*
X113169075Y-75542007D01*
X113152037Y-75605591D01*
X112519728Y-74973282D01*
X112519727Y-74973282D01*
X112480380Y-75027439D01*
X112383904Y-75216782D01*
X112318242Y-75418869D01*
X112318242Y-75418872D01*
X112285000Y-75628753D01*
X112285000Y-75841246D01*
X112318242Y-76051127D01*
X112318242Y-76051130D01*
X112383904Y-76253217D01*
X112480375Y-76442550D01*
X112519728Y-76496716D01*
X113152037Y-75864408D01*
X113169075Y-75927993D01*
X113234901Y-76042007D01*
X113327993Y-76135099D01*
X113442007Y-76200925D01*
X113505590Y-76217962D01*
X112835370Y-76888181D01*
X112774047Y-76921666D01*
X112747698Y-76924500D01*
X112737134Y-76924500D01*
X112737123Y-76924501D01*
X112677516Y-76930908D01*
X112542671Y-76981202D01*
X112542664Y-76981206D01*
X112427455Y-77067452D01*
X112427452Y-77067455D01*
X112341206Y-77182664D01*
X112341202Y-77182671D01*
X112290908Y-77317517D01*
X112284501Y-77377116D01*
X112284500Y-77377135D01*
X109750500Y-77377135D01*
X109750500Y-68868872D01*
X120499500Y-68868872D01*
X120499500Y-69131127D01*
X120526123Y-69333339D01*
X120533730Y-69391116D01*
X120601602Y-69644418D01*
X120601605Y-69644428D01*
X120701953Y-69886690D01*
X120701958Y-69886700D01*
X120833075Y-70113803D01*
X120992718Y-70321851D01*
X120992726Y-70321860D01*
X121178140Y-70507274D01*
X121178148Y-70507281D01*
X121386196Y-70666924D01*
X121613299Y-70798041D01*
X121613309Y-70798046D01*
X121855571Y-70898394D01*
X121855581Y-70898398D01*
X122108884Y-70966270D01*
X122357188Y-70998960D01*
X122368864Y-71000498D01*
X122368880Y-71000500D01*
X122368887Y-71000500D01*
X122631113Y-71000500D01*
X122631120Y-71000500D01*
X122891116Y-70966270D01*
X123144419Y-70898398D01*
X123386697Y-70798043D01*
X123613803Y-70666924D01*
X123821851Y-70507282D01*
X123821855Y-70507277D01*
X123821860Y-70507274D01*
X124007274Y-70321860D01*
X124007277Y-70321855D01*
X124007282Y-70321851D01*
X124166924Y-70113803D01*
X124298043Y-69886697D01*
X124398398Y-69644419D01*
X124466270Y-69391116D01*
X124500500Y-69131120D01*
X124500500Y-68868880D01*
X124500499Y-68868872D01*
X125499500Y-68868872D01*
X125499500Y-69131127D01*
X125526123Y-69333339D01*
X125533730Y-69391116D01*
X125601602Y-69644418D01*
X125601605Y-69644428D01*
X125701953Y-69886690D01*
X125701958Y-69886700D01*
X125833075Y-70113803D01*
X125992718Y-70321851D01*
X125992726Y-70321860D01*
X126178140Y-70507274D01*
X126178148Y-70507281D01*
X126386196Y-70666924D01*
X126613299Y-70798041D01*
X126613309Y-70798046D01*
X126855571Y-70898394D01*
X126855581Y-70898398D01*
X127108884Y-70966270D01*
X127357188Y-70998960D01*
X127368864Y-71000498D01*
X127368880Y-71000500D01*
X127368887Y-71000500D01*
X127631113Y-71000500D01*
X127631120Y-71000500D01*
X127891116Y-70966270D01*
X128144419Y-70898398D01*
X128386697Y-70798043D01*
X128613803Y-70666924D01*
X128821851Y-70507282D01*
X128821855Y-70507277D01*
X128821860Y-70507274D01*
X129007274Y-70321860D01*
X129007277Y-70321855D01*
X129007282Y-70321851D01*
X129166924Y-70113803D01*
X129298043Y-69886697D01*
X129398398Y-69644419D01*
X129466270Y-69391116D01*
X129500500Y-69131120D01*
X129500500Y-68868880D01*
X129466270Y-68608884D01*
X129398398Y-68355581D01*
X129320254Y-68166924D01*
X129298046Y-68113309D01*
X129298041Y-68113299D01*
X129166924Y-67886196D01*
X129007281Y-67678148D01*
X129007274Y-67678140D01*
X128821860Y-67492726D01*
X128821851Y-67492718D01*
X128768963Y-67452135D01*
X130499500Y-67452135D01*
X130499500Y-70547870D01*
X130499501Y-70547876D01*
X130505908Y-70607483D01*
X130556202Y-70742328D01*
X130556206Y-70742335D01*
X130642452Y-70857544D01*
X130642455Y-70857547D01*
X130757664Y-70943793D01*
X130757671Y-70943797D01*
X130892517Y-70994091D01*
X130892516Y-70994091D01*
X130899444Y-70994835D01*
X130952127Y-71000500D01*
X134047872Y-71000499D01*
X134107483Y-70994091D01*
X134242331Y-70943796D01*
X134357546Y-70857546D01*
X134443796Y-70742331D01*
X134494091Y-70607483D01*
X134500500Y-70547873D01*
X134500499Y-67452128D01*
X134494091Y-67392517D01*
X134491921Y-67386700D01*
X134443797Y-67257671D01*
X134443793Y-67257664D01*
X134357547Y-67142455D01*
X134357544Y-67142452D01*
X134242335Y-67056206D01*
X134242328Y-67056202D01*
X134107482Y-67005908D01*
X134107483Y-67005908D01*
X134047883Y-66999501D01*
X134047881Y-66999500D01*
X134047873Y-66999500D01*
X134047864Y-66999500D01*
X130952129Y-66999500D01*
X130952123Y-66999501D01*
X130892516Y-67005908D01*
X130757671Y-67056202D01*
X130757664Y-67056206D01*
X130642455Y-67142452D01*
X130642452Y-67142455D01*
X130556206Y-67257664D01*
X130556202Y-67257671D01*
X130505908Y-67392517D01*
X130499501Y-67452116D01*
X130499501Y-67452123D01*
X130499500Y-67452135D01*
X128768963Y-67452135D01*
X128613803Y-67333075D01*
X128386700Y-67201958D01*
X128386690Y-67201953D01*
X128144428Y-67101605D01*
X128144421Y-67101603D01*
X128144419Y-67101602D01*
X127891116Y-67033730D01*
X127833339Y-67026123D01*
X127631127Y-66999500D01*
X127631120Y-66999500D01*
X127368880Y-66999500D01*
X127368872Y-66999500D01*
X127137772Y-67029926D01*
X127108884Y-67033730D01*
X126855581Y-67101602D01*
X126855571Y-67101605D01*
X126613309Y-67201953D01*
X126613299Y-67201958D01*
X126386196Y-67333075D01*
X126178148Y-67492718D01*
X125992718Y-67678148D01*
X125833075Y-67886196D01*
X125701958Y-68113299D01*
X125701953Y-68113309D01*
X125601605Y-68355571D01*
X125601602Y-68355581D01*
X125571944Y-68466269D01*
X125533730Y-68608885D01*
X125499500Y-68868872D01*
X124500499Y-68868872D01*
X124466270Y-68608884D01*
X124398398Y-68355581D01*
X124320254Y-68166924D01*
X124298046Y-68113309D01*
X124298041Y-68113299D01*
X124166924Y-67886196D01*
X124007281Y-67678148D01*
X124007274Y-67678140D01*
X123821860Y-67492726D01*
X123821851Y-67492718D01*
X123613803Y-67333075D01*
X123386700Y-67201958D01*
X123386690Y-67201953D01*
X123144428Y-67101605D01*
X123144421Y-67101603D01*
X123144419Y-67101602D01*
X122891116Y-67033730D01*
X122833339Y-67026123D01*
X122631127Y-66999500D01*
X122631120Y-66999500D01*
X122368880Y-66999500D01*
X122368872Y-66999500D01*
X122137772Y-67029926D01*
X122108884Y-67033730D01*
X121855581Y-67101602D01*
X121855571Y-67101605D01*
X121613309Y-67201953D01*
X121613299Y-67201958D01*
X121386196Y-67333075D01*
X121178148Y-67492718D01*
X120992718Y-67678148D01*
X120833075Y-67886196D01*
X120701958Y-68113299D01*
X120701953Y-68113309D01*
X120601605Y-68355571D01*
X120601602Y-68355581D01*
X120571944Y-68466269D01*
X120533730Y-68608885D01*
X120499500Y-68868872D01*
X109750500Y-68868872D01*
X109750500Y-67871478D01*
X109770185Y-67804439D01*
X109822989Y-67758684D01*
X109892147Y-67748740D01*
X109955703Y-67777765D01*
X109972869Y-67795984D01*
X109992718Y-67821851D01*
X109992722Y-67821855D01*
X109992726Y-67821860D01*
X110178140Y-68007274D01*
X110178148Y-68007281D01*
X110386196Y-68166924D01*
X110613299Y-68298041D01*
X110613309Y-68298046D01*
X110855571Y-68398394D01*
X110855581Y-68398398D01*
X111108884Y-68466270D01*
X111368880Y-68500500D01*
X111368887Y-68500500D01*
X111631113Y-68500500D01*
X111631120Y-68500500D01*
X111891116Y-68466270D01*
X112144419Y-68398398D01*
X112386697Y-68298043D01*
X112613803Y-68166924D01*
X112821851Y-68007282D01*
X112821855Y-68007277D01*
X112821860Y-68007274D01*
X113007274Y-67821860D01*
X113007277Y-67821855D01*
X113007282Y-67821851D01*
X113166924Y-67613803D01*
X113298043Y-67386697D01*
X113398398Y-67144419D01*
X113466270Y-66891116D01*
X113500500Y-66631120D01*
X113500500Y-66368880D01*
X113466270Y-66108884D01*
X113398398Y-65855581D01*
X113300204Y-65618520D01*
X113298046Y-65613309D01*
X113298041Y-65613299D01*
X113166924Y-65386196D01*
X113020642Y-65195560D01*
X113007282Y-65178149D01*
X113007281Y-65178148D01*
X113007274Y-65178140D01*
X112821860Y-64992726D01*
X112821855Y-64992722D01*
X112821851Y-64992718D01*
X112795988Y-64972873D01*
X112754789Y-64916448D01*
X112750634Y-64846702D01*
X112784847Y-64785781D01*
X112846564Y-64753029D01*
X112871478Y-64750500D01*
X137378522Y-64750500D01*
X137445561Y-64770185D01*
G37*
%TD.AperFunction*%
%TD*%
M02*
